<!-- Generated by IcoMoon.io -->
<svg version="1.1" xmlns="http://www.w3.org/2000/svg" width="34" height="32" viewBox="0 0 34 32">
<path d="M12.659 0l4.618 13.152 2.040-7.103v7.783l-5.415 18.169h-1.243l-9.096-26.983c-0.313-0.906-0.641-1.516-0.985-1.829-0.203-0.203-0.555-0.352-1.055-0.445-1.016-0.219-1.524-0.703-1.524-1.454 0-0.406 0.144-0.723 0.434-0.949s0.707-0.34 1.254-0.34h10.971zM3.563 10.784l2.485 7.080v7.056c0 0.719 0.027 1.235 0.082 1.547s0.176 0.656 0.363 1.032c0.328 0.688 0.781 1.204 1.36 1.547l0.867 0.563c0.594 0.36 0.891 0.758 0.891 1.196 0 0.797-0.586 1.196-1.758 1.196h-5.884c-1.172 0-1.758-0.39-1.758-1.172 0-0.25 0.051-0.441 0.152-0.574s0.301-0.285 0.598-0.457c1.735-0.938 2.602-2.563 2.602-4.876v-14.136zM21.286 0h11.042c1.172 0 1.758 0.407 1.758 1.219 0 0.641-0.313 1.063-0.938 1.266-0.516 0.172-0.817 0.278-0.903 0.316s-0.176 0.129-0.27 0.27c-0.188 0.25-0.281 0.649-0.281 1.196v23.467c0 0.547 0.094 0.946 0.281 1.196 0.094 0.141 0.184 0.231 0.27 0.27s0.387 0.145 0.903 0.316c0.625 0.203 0.938 0.625 0.938 1.266 0 0.813-0.586 1.219-1.758 1.219h-11.839c-0.688 0-1.207-0.106-1.559-0.316s-0.527-0.527-0.527-0.95c0-0.688 0.375-1.117 1.125-1.289 0.609-0.156 0.969-0.254 1.078-0.293s0.219-0.129 0.328-0.27c0.234-0.281 0.352-0.727 0.352-1.336v-27.546z"></path>
</svg>
