<!-- Generated by IcoMoon.io -->
<svg version="1.1" xmlns="http://www.w3.org/2000/svg" width="32" height="32" viewBox="0 0 32 32">
<path d="M14.764 0.039c-5.295 0.369-10.12 3.452-12.756 8.151-3.036 5.421-2.636 12.183 1.036 17.228 0.761 1.043 1.883 2.236 2.863 3.020 1.561 1.255 3.546 2.314 5.382 2.871 2.761 0.832 5.743 0.918 8.48 0.243 2.385-0.588 4.519-1.647 6.339-3.146 0.737-0.604 1.616-1.444 1.718-1.64 0.173-0.329 0.086-0.659-0.212-0.839s-0.651-0.102-0.887 0.204c-0.157 0.196-1.106 1.075-1.569 1.444-1.004 0.8-2.456 1.647-3.687 2.134-3.672 1.467-7.814 1.389-11.446-0.212-0.973-0.431-0.949-0.243-0.212-1.53 0.824-1.436 0.832-1.545 0.063-2.016-1.13-0.698-2.448-1.891-3.201-2.903-1.334-1.797-2.118-3.821-2.306-5.947l-0.039-0.455 1.663-0.016c1.632-0.016 1.679-0.024 1.828-0.133 0.329-0.251 0.329-0.745 0-0.988-0.149-0.118-0.196-0.118-1.82-0.133l-1.655-0.016 0.031-0.518c0.039-0.596 0.173-1.349 0.384-2.126 0.141-0.526 0.141-0.541 0.055-0.737-0.157-0.329-0.541-0.447-0.879-0.275-0.196 0.102-0.251 0.196-0.4 0.769-0.275 1.004-0.377 1.655-0.447 2.785-0.157 2.628 0.533 5.374 1.93 7.594 0.879 1.404 2.267 2.863 3.554 3.742 0.212 0.141 0.384 0.282 0.384 0.298 0 0.055-0.855 1.545-0.894 1.545-0.016 0-0.251-0.157-0.518-0.345-1.938-1.349-3.475-3.107-4.589-5.217-0.8-1.53-1.263-2.926-1.538-4.621-0.157-1.004-0.173-3.381-0.024-4.362 0.22-1.451 0.643-2.879 1.2-4.056l0.314-0.667 1.059 0.612c1.247 0.722 1.326 0.753 1.585 0.643 0.204-0.086 0.251-0.149 0.863-1.114 0.486-0.769 0.737-1.075 1.357-1.608 0.282-0.251 0.502-0.479 0.533-0.581 0.086-0.243 0.016-0.494-0.196-0.675-0.251-0.22-0.51-0.22-0.824 0.008-0.486 0.353-1.357 1.294-1.757 1.891-0.212 0.322-0.408 0.596-0.439 0.604-0.047 0.016-1.404-0.745-1.506-0.847-0.024-0.024 0.11-0.267 0.314-0.557 1.357-1.946 3.107-3.483 5.217-4.597 1.53-0.8 2.926-1.263 4.621-1.538 1.004-0.157 3.381-0.173 4.362-0.024 1.451 0.22 2.879 0.643 4.056 1.2l0.667 0.314-0.8 1.381c-0.839 1.451-0.887 1.569-0.722 1.891 0.094 0.18 0.329 0.322 0.541 0.322 0.322 0 0.439-0.141 1.263-1.569 0.439-0.753 0.808-1.373 0.816-1.373s0.259 0.157 0.533 0.353c1.412 0.981 2.652 2.228 3.632 3.624 0.204 0.29 0.337 0.541 0.314 0.565s-0.377 0.235-0.785 0.471l-0.737 0.424-0.29-0.408c-0.581-0.816-1.593-1.875-1.93-2.024-0.251-0.11-0.502-0.055-0.667 0.149-0.329 0.392-0.267 0.565 0.502 1.349 0.683 0.706 1.145 1.294 1.561 1.993 0.557 0.941 0.918 1.765 1.177 2.683 0.188 0.683 0.337 0.855 0.722 0.855 0.212-0.016 0.29-0.031 0.463-0.18 0.133-0.141 0.157-0.212 0.126-0.502-0.039-0.408-0.361-1.389-0.714-2.173-0.157-0.353-0.267-0.659-0.243-0.683s0.377-0.235 0.777-0.471l0.737-0.424 0.282 0.596c0.714 1.514 1.13 3.028 1.318 4.833 0.078 0.784 0.031 3.248-0.078 3.985-0.196 1.294-0.494 2.259-1.075 3.444l-0.392 0.8-0.761-0.431c-0.424-0.235-0.785-0.447-0.8-0.471-0.024-0.024 0.086-0.314 0.235-0.651 0.533-1.192 0.792-2.048 1.036-3.413 0.157-0.887 0.18-1.953 0.039-2.189-0.173-0.29-0.204-0.298-1.679-0.314l-1.365-0.016-0.063-0.51c-0.031-0.282-0.102-0.588-0.141-0.683-0.157-0.337-0.62-0.455-0.902-0.235-0.235 0.18-0.306 0.424-0.243 0.784 0.251 1.443 0.008 3.334-0.612 4.731l-0.133 0.306-0.306-0.173c-0.926-0.526-1.428-0.839-1.412-0.879 0.008-0.024 0.094-0.29 0.196-0.581 0.212-0.628 0.392-1.389 0.353-1.93-0.031-0.416-0.039-0.361-0.18-0.588v0c-0.118-0.126-0.282-0.204-0.455-0.204l-1.381-0.016c-1.804-0.016-1.938 0-2.118 0.275-0.047 0.078-0.11 0.314-0.133 0.526-0.086 0.737-0.4 1.302-0.949 1.695-0.785 0.565-1.906 0.565-2.699 0-1.255-0.902-1.255-2.832 0-3.734 0.455-0.329 0.871-0.439 1.6-0.416l0.353 0.008c0.157 0.008 0.314-0.055 0.424-0.165v0c0.141-0.18 0.173-0.212 0.173-0.439 0-0.306-0.141-0.494-0.447-0.596-0.282-0.094-1.247-0.078-1.655 0.031-1.177 0.306-2.244 1.357-2.534 2.495l-0.071 0.282-1.836 0.031 0.031-0.227c0.259-1.663 1.373-3.185 2.911-3.962 1.294-0.651 2.95-0.73 4.378-0.188 0.424 0.157 1.114 0.573 1.522 0.91 0.392 0.329 0.863 0.926 1.224 1.545 0.267 0.463 0.369 0.573 0.588 0.635 0.369 0.102 0.769-0.196 0.769-0.573 0-0.494-0.981-1.906-1.789-2.581-0.22-0.18-0.392-0.361-0.384-0.392 0.039-0.141 0.871-1.569 0.918-1.569 0.086 0 0.722 0.51 1.145 0.926 0.455 0.439 0.879 0.996 1.318 1.71 0.369 0.604 0.431 0.675 0.643 0.761 0.361 0.157 0.824-0.157 0.824-0.557 0-0.11-0.047-0.29-0.11-0.408-0.22-0.424-1.004-1.553-1.349-1.946-1.012-1.169-2.644-2.228-4.221-2.746-0.683-0.228-0.761-0.228-0.996-0.071-0.329 0.22-0.4 0.533-0.196 0.847 0.102 0.149 0.204 0.212 0.549 0.33 0.549 0.188 1.098 0.4 1.192 0.463 0.063 0.039-0.016 0.204-0.369 0.832-0.243 0.431-0.471 0.792-0.51 0.808s-0.18-0.024-0.322-0.086c-1.075-0.463-2.746-0.565-4.009-0.259-1.404 0.337-2.746 1.208-3.624 2.322l-0.212 0.275-0.792-0.455c-0.439-0.251-0.808-0.463-0.816-0.471-0.031-0.031 0.227-0.384 0.635-0.863 0.926-1.090 2.346-2.016 3.828-2.495 0.683-0.22 0.832-0.353 0.832-0.73 0-0.275-0.149-0.479-0.424-0.573-0.204-0.071-0.243-0.071-0.824 0.118-0.329 0.11-0.769 0.275-0.973 0.369-0.306 0.141-0.377 0.157-0.416 0.094-0.18-0.282-0.91-1.553-0.894-1.569 0.008-0.008 0.235-0.11 0.502-0.235 1.153-0.518 2.487-0.863 3.656-0.949l0.479-0.039v1.318c0 1.467 0.016 1.553 0.353 1.71 0.227 0.11 0.384 0.102 0.588-0.024 0.298-0.18 0.306-0.235 0.329-1.679l0.016-1.326 0.408 0.039c0.628 0.055 1.373 0.188 1.875 0.337 0.887 0.267 0.832 0.259 1.036 0.157 0.345-0.165 0.455-0.533 0.282-0.879-0.157-0.306-1.177-0.628-2.644-0.824-0.698-0.094-1.004-0.11-1.93-0.086-1.232 0.031-1.899 0.118-2.911 0.384-0.957 0.251-1.624 0.494-2.518 0.934-1.294 0.635-1.302 0.675-0.337 2.314 0.361 0.612 0.643 1.114 0.635 1.122-1.31 0.965-1.946 1.6-2.722 2.754-0.722 1.012-1.357 2.448-1.287 2.785 0.047 0.259 0.298 0.455 0.486 0.486 0.33 0.063 0.675-0.157 0.753-0.486 0.063-0.259 0.463-1.075 0.518-1.059 0.031 0.008 0.408 0.22 0.839 0.463l0.784 0.447-0.071 0.141c-0.361 0.722-0.659 2.448-0.494 2.848 0.149 0.369 0.22 0.384 1.734 0.408l1.357 0.024 0.071 0.282c0.141 0.541 0.486 1.122 0.949 1.577 0.345 0.345 0.518 0.463 0.91 0.651 0.267 0.126 0.581 0.251 0.698 0.275l0.212 0.047 0.016 0.918c0.016 0.777 0 0.918-0.063 0.918-0.149 0-0.808-0.157-1.122-0.267-1.012-0.353-2.024-1.161-2.683-2.142-0.486-0.722-0.573-0.722-2.024 0.133-0.628 0.369-1.145 0.667-1.161 0.667s-0.141-0.29-0.275-0.643c-0.275-0.706-0.4-0.855-0.745-0.855-0.275 0-0.479 0.126-0.588 0.361v0c-0.063 0.133-0.071 0.275-0.024 0.416l0.11 0.322c0.494 1.459 1.577 3.028 2.832 4.111 0.863 0.745 2.204 1.577 2.879 1.789 0.345 0.11 0.4 0.118 0.581 0.047 0.227-0.086 0.439-0.369 0.439-0.581 0-0.157-0.188-0.471-0.322-0.541-0.047-0.024-0.235-0.102-0.424-0.173-0.737-0.29-1.977-1.13-2.699-1.836-0.392-0.384-1.098-1.224-1.098-1.302 0-0.031 1.389-0.863 1.553-0.926 0.063-0.024 0.18 0.086 0.424 0.369 0.855 1.020 2.087 1.797 3.397 2.134 1.491 0.384 2.848 0.275 4.378-0.353 1.294-0.533 1.663-0.918 1.357-1.42-0.102-0.173-0.353-0.337-0.51-0.337-0.047 0-0.4 0.157-0.792 0.345-0.737 0.361-1.365 0.581-1.836 0.643l-0.282 0.039 0.031-1.851 0.212-0.047c0.118-0.024 0.439-0.149 0.706-0.282 0.949-0.463 1.608-1.302 1.914-2.463 0.016-0.047 0.243-0.071 0.902-0.071 0.816 0 0.887 0.008 0.863 0.094-0.016 0.055-0.063 0.282-0.118 0.51-0.086 0.416-0.282 0.949-0.502 1.341-0.173 0.322-0.157 0.588 0.055 0.792 0.094 0.094 0.667 0.455 1.279 0.808l1.106 0.635-0.086 0.149c-0.047 0.086-0.29 0.384-0.533 0.667-0.384 0.455-0.439 0.541-0.439 0.722 0 0.282 0.118 0.486 0.353 0.596 0.298 0.141 0.486 0.078 0.832-0.275 1.404-1.459 2.377-3.601 2.581-5.688l0.039-0.361h1.906l-0.031 0.306c-0.055 0.596-0.345 1.914-0.573 2.612-0.667 1.993-1.883 3.844-3.389 5.17-0.667 0.581-1.326 1.067-1.381 1.004-0.024-0.024-0.322-0.541-0.667-1.138-0.635-1.106-0.839-1.381-1.059-1.396-0.502-0.024-0.777 0.243-0.722 0.69 0.016 0.126 0.282 0.643 0.706 1.365 0.377 0.643 0.659 1.185 0.635 1.208s-0.314 0.165-0.635 0.306c-1.161 0.526-2.471 0.863-3.828 0.996l-0.361 0.031v-0.18c0-0.282 0.141-1.749 0.165-1.773 0.016-0.008 0.298-0.055 0.635-0.11 0.753-0.11 1.334-0.251 1.514-0.369 0.322-0.212 0.298-0.8-0.039-1.004-0.22-0.133-0.306-0.126-1.051 0.031-0.337 0.071-0.91 0.149-1.271 0.18-0.612 0.047-0.659 0.055-0.808 0.196-0.086 0.078-0.165 0.196-0.18 0.259s-0.078 0.698-0.141 1.42c-0.063 0.722-0.118 1.318-0.133 1.326-0.055 0.055-1.326-0.243-2.008-0.471-0.431-0.141-0.855-0.267-0.941-0.267-0.204 0-0.431 0.18-0.526 0.416s-0.024 0.486 0.196 0.675c0.196 0.165 1.608 0.628 2.377 0.785 2.11 0.416 5.076-0.063 7.296-1.177 2.063-1.036 3.97-2.675 5.17-4.448l0.196-0.29 0.957 0.533c1.271 0.714 1.459 0.8 1.671 0.753 0.282-0.055 0.447-0.282 0.973-1.341 0.973-1.938 1.318-3.169 1.483-5.264 0.392-5.044-1.224-9.595-4.636-13.007-3.342-3.271-7.79-4.919-12.568-4.589z"></path>
</svg>
