<!-- Generated by IcoMoon.io -->
<svg version="1.1" xmlns="http://www.w3.org/2000/svg" width="76" height="32" viewBox="0 0 76 32">
<path d="M8.45 31.798h-2.272c-0.503-0.789-0.958-1.471-1.364-2.046s-0.847-1.168-1.322-1.778h-0.864v2.676c0 0.139 0.022 0.261 0.065 0.366s0.137 0.185 0.279 0.241c0.071 0.028 0.196 0.054 0.375 0.077s0.329 0.038 0.452 0.042v0.422h-3.568v-0.422c0.095-0.008 0.233-0.022 0.413-0.042s0.306-0.046 0.378-0.077c0.119-0.051 0.205-0.127 0.259-0.226s0.080-0.226 0.080-0.381v-6.102c0-0.139-0.020-0.262-0.059-0.369s-0.133-0.188-0.28-0.244c-0.099-0.036-0.228-0.068-0.387-0.098s-0.293-0.049-0.404-0.057v-0.422h3.896c0.357 0 0.692 0.037 1.005 0.11s0.597 0.191 0.85 0.354c0.246 0.159 0.442 0.366 0.589 0.621s0.22 0.564 0.22 0.925c0 0.325-0.050 0.613-0.149 0.862s-0.246 0.466-0.44 0.648c-0.178 0.171-0.393 0.318-0.642 0.443s-0.525 0.231-0.827 0.318c0.416 0.551 0.762 1.015 1.038 1.392s0.613 0.835 1.014 1.374c0.174 0.238 0.332 0.413 0.473 0.526s0.28 0.205 0.419 0.276c0.103 0.052 0.232 0.091 0.387 0.119s0.283 0.044 0.386 0.048v0.422zM5.322 25.509c0-0.511-0.147-0.915-0.44-1.214s-0.708-0.448-1.243-0.448h-1.011v3.616h0.779c0.547 0 1.003-0.175 1.368-0.525s0.547-0.826 0.547-1.428z"></path>
<path d="M12.465 31.798h-3.8v-0.422c0.107-0.008 0.262-0.020 0.464-0.036s0.345-0.040 0.428-0.071c0.131-0.051 0.226-0.122 0.285-0.211s0.089-0.213 0.089-0.372v-6.114c0-0.139-0.022-0.255-0.065-0.348s-0.147-0.171-0.309-0.235c-0.119-0.048-0.269-0.092-0.449-0.134s-0.328-0.066-0.443-0.074v-0.422h3.8v0.422c-0.123 0.004-0.27 0.019-0.44 0.045s-0.319 0.059-0.446 0.098c-0.151 0.048-0.252 0.125-0.303 0.232s-0.077 0.226-0.077 0.357v6.108c0 0.131 0.029 0.247 0.086 0.348s0.155 0.181 0.294 0.241c0.083 0.032 0.219 0.066 0.407 0.104s0.348 0.059 0.479 0.062v0.422z"></path>
<path d="M21.606 27.629c0 0.718-0.135 1.34-0.404 1.867s-0.621 0.959-1.053 1.296c-0.436 0.337-0.926 0.589-1.469 0.755s-1.104 0.25-1.683 0.25h-3.497v-0.422c0.115 0 0.265-0.011 0.449-0.033s0.306-0.047 0.366-0.074c0.119-0.051 0.205-0.128 0.259-0.229s0.080-0.223 0.080-0.366v-6.090c0-0.135-0.023-0.256-0.068-0.363s-0.136-0.192-0.271-0.256c-0.123-0.059-0.256-0.103-0.399-0.131s-0.266-0.046-0.369-0.054v-0.422h3.687c0.507 0 1.007 0.078 1.499 0.235s0.92 0.368 1.285 0.633c0.496 0.353 0.884 0.815 1.166 1.386s0.422 1.243 0.422 2.016zM20.149 27.626c0-0.566-0.075-1.079-0.226-1.536s-0.371-0.857-0.66-1.197c-0.274-0.325-0.61-0.58-1.008-0.767s-0.842-0.279-1.329-0.279c-0.163 0-0.346 0.003-0.55 0.009s-0.356 0.011-0.455 0.015v6.483c0 0.361 0.105 0.61 0.315 0.749s0.533 0.208 0.969 0.208c0.503 0 0.944-0.089 1.32-0.267s0.682-0.426 0.916-0.743c0.246-0.333 0.425-0.718 0.538-1.156s0.17-0.944 0.17-1.518z"></path>
<path d="M30.729 27.629c0 0.718-0.135 1.34-0.404 1.867s-0.621 0.959-1.053 1.296c-0.436 0.337-0.926 0.589-1.469 0.755s-1.104 0.25-1.683 0.25h-3.497v-0.422c0.115 0 0.265-0.011 0.449-0.033s0.306-0.047 0.366-0.074c0.119-0.051 0.205-0.128 0.259-0.229s0.080-0.223 0.080-0.366v-6.090c0-0.135-0.023-0.256-0.068-0.363s-0.136-0.192-0.271-0.256c-0.123-0.059-0.256-0.103-0.398-0.131s-0.266-0.046-0.369-0.054v-0.422h3.687c0.507 0 1.007 0.078 1.499 0.235s0.92 0.368 1.285 0.633c0.496 0.353 0.884 0.815 1.166 1.386s0.422 1.243 0.422 2.016zM29.272 27.626c0-0.566-0.075-1.079-0.226-1.536s-0.371-0.857-0.66-1.197c-0.274-0.325-0.61-0.58-1.008-0.767s-0.842-0.279-1.329-0.279c-0.163 0-0.346 0.003-0.55 0.009s-0.356 0.011-0.455 0.015v6.483c0 0.361 0.105 0.61 0.315 0.749s0.533 0.208 0.969 0.208c0.503 0 0.944-0.089 1.32-0.267s0.682-0.426 0.916-0.743c0.246-0.333 0.425-0.718 0.538-1.156s0.17-0.944 0.17-1.518z"></path>
<path d="M38.543 29.288l-0.178 2.51h-6.596v-0.422c0.095-0.008 0.233-0.022 0.413-0.042s0.306-0.046 0.378-0.077c0.119-0.051 0.205-0.127 0.259-0.226s0.080-0.226 0.080-0.381v-6.042c0-0.135-0.023-0.254-0.068-0.357s-0.136-0.186-0.271-0.25c-0.091-0.048-0.219-0.094-0.384-0.14s-0.3-0.072-0.407-0.080v-0.422h3.562v0.422c-0.111 0.004-0.255 0.024-0.431 0.059s-0.304 0.067-0.384 0.095c-0.135 0.048-0.227 0.129-0.277 0.244s-0.074 0.238-0.074 0.369v5.668c0 0.262 0.013 0.465 0.039 0.61s0.086 0.257 0.181 0.336c0.091 0.071 0.227 0.118 0.407 0.14s0.433 0.033 0.758 0.033c0.147 0 0.299-0.004 0.458-0.012s0.309-0.024 0.452-0.048c0.139-0.024 0.267-0.056 0.384-0.098s0.203-0.094 0.259-0.158c0.163-0.182 0.352-0.459 0.568-0.83s0.366-0.671 0.449-0.901h0.422z"></path>
<path d="M46.215 29.312l-0.161 2.486h-7.006v-0.422c0.119-0.008 0.277-0.025 0.476-0.051s0.327-0.053 0.387-0.080c0.127-0.059 0.215-0.137 0.265-0.232s0.074-0.216 0.074-0.363v-6.066c0-0.131-0.022-0.247-0.065-0.348s-0.135-0.183-0.274-0.247c-0.107-0.051-0.251-0.097-0.431-0.137s-0.324-0.063-0.431-0.071v-0.422h6.53v2.034h-0.446c-0.079-0.301-0.251-0.621-0.514-0.96s-0.514-0.524-0.752-0.556c-0.123-0.016-0.27-0.028-0.44-0.036s-0.365-0.012-0.583-0.012h-1.326v3.354h0.952c0.305 0 0.528-0.029 0.669-0.086s0.265-0.154 0.372-0.288c0.087-0.115 0.161-0.269 0.223-0.461s0.102-0.374 0.122-0.544h0.446v3.307h-0.446c-0.016-0.19-0.059-0.392-0.128-0.604s-0.142-0.366-0.217-0.461c-0.123-0.155-0.263-0.256-0.419-0.303s-0.364-0.071-0.621-0.071h-0.952v2.529c0 0.253 0.018 0.453 0.053 0.6s0.105 0.257 0.208 0.332c0.103 0.075 0.244 0.124 0.422 0.146s0.432 0.033 0.761 0.033h0.517c0.214 0 0.395-0.008 0.541-0.024 0.151-0.016 0.306-0.045 0.467-0.086s0.274-0.098 0.342-0.17c0.182-0.19 0.374-0.479 0.574-0.865s0.328-0.671 0.384-0.853h0.428z"></path>
<path d="M58.235 31.798h-2.273c-0.503-0.789-0.958-1.471-1.364-2.046s-0.847-1.168-1.322-1.778h-0.864v2.676c0 0.139 0.022 0.261 0.065 0.366s0.137 0.185 0.279 0.241c0.071 0.028 0.196 0.054 0.375 0.077s0.329 0.038 0.452 0.042v0.422h-3.568v-0.422c0.095-0.008 0.233-0.022 0.413-0.042s0.306-0.046 0.378-0.077c0.119-0.051 0.205-0.127 0.259-0.226s0.080-0.226 0.080-0.381v-6.102c0-0.139-0.020-0.262-0.059-0.369s-0.133-0.188-0.28-0.244c-0.099-0.036-0.228-0.068-0.387-0.098s-0.293-0.049-0.404-0.057v-0.422h3.895c0.357 0 0.692 0.037 1.005 0.11s0.597 0.191 0.85 0.354c0.246 0.159 0.442 0.366 0.589 0.621s0.22 0.564 0.22 0.925c0 0.325-0.050 0.613-0.149 0.862s-0.246 0.466-0.44 0.648c-0.178 0.171-0.392 0.318-0.642 0.443s-0.525 0.231-0.827 0.318c0.416 0.551 0.762 1.015 1.038 1.392s0.613 0.835 1.014 1.374c0.174 0.238 0.332 0.413 0.473 0.526s0.28 0.205 0.419 0.276c0.103 0.052 0.232 0.091 0.387 0.119s0.283 0.044 0.386 0.048v0.422zM55.106 25.509c0-0.511-0.147-0.915-0.44-1.214s-0.708-0.448-1.243-0.448h-1.011v3.616h0.779c0.547 0 1.003-0.175 1.368-0.525s0.547-0.826 0.547-1.428z"></path>
<path d="M67.096 23.781c-0.111 0.004-0.274 0.028-0.488 0.071s-0.389 0.109-0.523 0.196c-0.135 0.091-0.228 0.28-0.279 0.565s-0.077 0.634-0.077 1.047v3.669c0 0.468-0.097 0.874-0.291 1.219s-0.45 0.628-0.767 0.85c-0.313 0.214-0.643 0.368-0.99 0.461s-0.679 0.14-0.996 0.14c-0.508 0-0.96-0.066-1.356-0.199s-0.73-0.312-0.999-0.538c-0.266-0.226-0.466-0.485-0.601-0.776s-0.202-0.596-0.202-0.913v-4.99c0-0.139-0.023-0.255-0.068-0.348s-0.138-0.179-0.276-0.259c-0.099-0.055-0.226-0.1-0.381-0.134s-0.282-0.054-0.381-0.062v-0.422h3.515v0.422c-0.111 0.004-0.251 0.022-0.419 0.054s-0.292 0.061-0.372 0.089c-0.135 0.048-0.225 0.127-0.271 0.238s-0.068 0.232-0.068 0.363v4.659c0 0.226 0.025 0.463 0.074 0.71s0.148 0.478 0.294 0.692c0.155 0.218 0.365 0.396 0.63 0.535s0.63 0.208 1.094 0.208c0.436 0 0.802-0.069 1.097-0.208s0.528-0.321 0.699-0.547c0.162-0.214 0.277-0.438 0.345-0.672s0.101-0.469 0.101-0.707v-3.459c0-0.44-0.032-0.799-0.095-1.079s-0.157-0.463-0.279-0.55c-0.139-0.099-0.328-0.176-0.568-0.232s-0.423-0.087-0.55-0.095v-0.422h3.449v0.422z"></path>
<path d="M76.433 23.781c-0.111 0.004-0.282 0.036-0.512 0.095s-0.394 0.121-0.494 0.184c-0.143 0.099-0.239 0.29-0.288 0.571s-0.074 0.638-0.074 1.070v6.179h-0.517l-5.115-6.905v4.353c0 0.488 0.031 0.862 0.092 1.124s0.156 0.448 0.282 0.559c0.091 0.087 0.28 0.169 0.565 0.244s0.474 0.115 0.565 0.119v0.422h-3.461v-0.422c0.107-0.008 0.287-0.047 0.541-0.116s0.412-0.132 0.476-0.187c0.139-0.111 0.234-0.28 0.285-0.509s0.077-0.617 0.077-1.169v-4.157c0-0.182-0.032-0.365-0.095-0.547s-0.149-0.323-0.256-0.422c-0.143-0.131-0.336-0.243-0.58-0.336s-0.441-0.144-0.592-0.152v-0.422h2.411l4.743 6.434v-4.014c0-0.492-0.032-0.869-0.095-1.133s-0.155-0.439-0.274-0.526c-0.111-0.075-0.292-0.149-0.544-0.22s-0.443-0.111-0.574-0.119v-0.422h3.432v0.422z"></path>
<path d="M8.088 0l2.951 8.403 1.303-4.538v4.973l-3.46 11.608h-0.794l-5.811-17.24c-0.2-0.579-0.409-0.968-0.629-1.168-0.13-0.13-0.355-0.225-0.674-0.285-0.649-0.14-0.974-0.449-0.974-0.929 0-0.26 0.092-0.462 0.277-0.607s0.452-0.217 0.801-0.217h7.010zM2.277 6.89l1.588 4.523v4.508c0 0.459 0.017 0.789 0.052 0.989s0.112 0.419 0.232 0.659c0.21 0.439 0.499 0.769 0.869 0.989l0.554 0.359c0.379 0.23 0.569 0.484 0.569 0.764 0 0.509-0.374 0.764-1.123 0.764h-3.76c-0.749 0-1.123-0.25-1.123-0.749 0-0.16 0.032-0.282 0.097-0.367s0.192-0.182 0.382-0.292c1.108-0.599 1.663-1.637 1.663-3.115v-9.032zM13.6 0h7.055c0.749 0 1.123 0.26 1.123 0.779 0 0.41-0.2 0.679-0.599 0.809-0.329 0.11-0.522 0.177-0.577 0.202s-0.112 0.082-0.172 0.172c-0.12 0.16-0.18 0.414-0.18 0.764v14.993c0 0.35 0.060 0.604 0.18 0.764 0.060 0.090 0.117 0.147 0.172 0.172s0.247 0.092 0.577 0.202c0.399 0.13 0.599 0.399 0.599 0.809 0 0.519-0.374 0.779-1.123 0.779h-7.564c-0.44 0-0.771-0.067-0.996-0.202s-0.337-0.337-0.337-0.607c0-0.439 0.24-0.714 0.719-0.824 0.389-0.1 0.619-0.162 0.689-0.187s0.14-0.082 0.21-0.172c0.15-0.18 0.225-0.464 0.225-0.854v-17.599z"></path>
<path d="M29.207 3.804l0.764 3.1-2.651 9.676c-0.080 0.28-0.12 0.539-0.12 0.779 0 0.629 0.294 1.078 0.884 1.348l0.524 0.24c0.329 0.15 0.494 0.399 0.494 0.749 0 0.499-0.365 0.749-1.093 0.749h-3.804c-0.37 0-0.662-0.077-0.876-0.232s-0.322-0.367-0.322-0.637c0-0.289 0.22-0.529 0.659-0.719 0.409-0.18 0.711-0.342 0.906-0.487s0.382-0.342 0.562-0.592c0.279-0.409 0.509-0.953 0.689-1.633l3.385-12.342zM30.24 0h6.036l4.164 17.599c0.080 0.31 0.17 0.584 0.27 0.824 0.090 0.19 0.29 0.344 0.599 0.464 0.26 0.11 0.439 0.22 0.539 0.33s0.15 0.26 0.15 0.449c0 0.519-0.389 0.779-1.168 0.779h-7.474c-0.3 0-0.539-0.072-0.719-0.217s-0.27-0.337-0.27-0.577c0-0.2 0.040-0.349 0.12-0.449s0.26-0.225 0.539-0.374c0.2-0.1 0.339-0.21 0.419-0.33s0.12-0.27 0.12-0.449c0-0.17-0.015-0.319-0.045-0.449l-0.479-2.172h-4.179l0.404-1.782h3.355l-2.756-12.177 0.374-1.468z"></path>
<path d="M57.44 0v1.722l-8.283 18.722h-6.545v-1.483l8.313-18.962h6.515zM43.121 0h6.5l-0.749 1.708c-0.849 0.11-1.628 0.419-2.337 0.929-0.899 0.639-1.513 1.548-1.842 2.726-0.080 0.31-0.18 0.524-0.3 0.644s-0.29 0.18-0.509 0.18c-0.509 0-0.764-0.294-0.764-0.884v-5.302zM57.44 20.445h-7.010l0.674-1.498c1.228-0.29 2.117-0.624 2.666-1.004 0.469-0.33 0.849-0.709 1.138-1.138s0.594-1.073 0.914-1.932c0.12-0.319 0.237-0.537 0.352-0.652s0.272-0.172 0.472-0.172c0.26 0 0.457 0.090 0.592 0.27s0.202 0.44 0.202 0.779v5.347z"></path>
<path d="M67.461 0v20.445h-7.055c-0.359 0-0.637-0.067-0.831-0.202s-0.292-0.327-0.292-0.577c0-0.409 0.2-0.679 0.599-0.809 0.329-0.11 0.522-0.177 0.577-0.202s0.112-0.082 0.172-0.172c0.12-0.16 0.18-0.414 0.18-0.764v-14.993c0-0.349-0.060-0.604-0.18-0.764-0.060-0.090-0.117-0.147-0.172-0.172s-0.247-0.092-0.577-0.202c-0.4-0.13-0.599-0.399-0.599-0.809 0-0.25 0.097-0.442 0.292-0.577s0.472-0.202 0.831-0.202h7.055zM68.719 10.904v-1.737c0.579-0.279 1.008-0.584 1.288-0.914s0.484-0.769 0.614-1.318c0.080-0.379 0.185-0.641 0.314-0.786s0.315-0.217 0.554-0.217c0.319 0 0.539 0.125 0.659 0.374 0.070 0.13 0.105 0.425 0.105 0.884v5.707c0 0.469-0.052 0.794-0.157 0.974s-0.297 0.27-0.577 0.27c-0.23 0-0.409-0.070-0.539-0.21s-0.235-0.374-0.315-0.704c-0.17-0.689-0.412-1.218-0.726-1.588s-0.722-0.614-1.221-0.734zM68.794 0h6.036v5.302c0 0.31-0.060 0.534-0.18 0.674s-0.31 0.21-0.569 0.21c-0.22 0-0.38-0.045-0.479-0.135s-0.195-0.274-0.285-0.554c-0.38-1.158-0.936-2.042-1.67-2.651s-1.685-0.974-2.853-1.093v-1.752zM68.809 20.445v-1.618c0.649-0.1 1.186-0.24 1.61-0.419s0.851-0.454 1.281-0.824c0.429-0.369 0.771-0.751 1.026-1.146s0.497-0.916 0.727-1.565c0.11-0.319 0.225-0.537 0.344-0.652s0.285-0.172 0.494-0.172c0.279 0 0.474 0.082 0.584 0.247s0.165 0.452 0.165 0.861v5.287h-6.231z"></path>
</svg>
