<!-- Generated by IcoMoon.io -->
<svg version="1.1" xmlns="http://www.w3.org/2000/svg" width="32" height="32" viewBox="0 0 32 32">
<path d="M0.142 19.551c-0.266 0.208-0.146 0.528 0.244 0.643 0.279 0.084 0.35 0.133 0.466 0.35 0.049 0.093 0.665 1.871 1.37 3.955l1.281 3.786 0.164 0.018c0.124 0.013 0.173-0.009 0.195-0.080 0.018-0.053 0.359-1.206 0.763-2.558l0.732-2.46-0.027-2.057-0.266 0.935c-0.146 0.514-0.284 0.913-0.306 0.891s-0.31-0.825-0.647-1.787l-0.612-1.747h-1.605c-1.543-0.004-1.614 0-1.751 0.111zM5.888 23.377c-0.013 3.214-0.027 3.959-0.089 4.030-0.040 0.049-0.155 0.102-0.257 0.124-0.399 0.075-0.576 0.386-0.35 0.612 0.151 0.151 0.563 0.177 2.394 0.16 1.485-0.018 1.614-0.027 1.72-0.12 0.16-0.146 0.146-0.377-0.027-0.514-0.080-0.062-0.177-0.111-0.217-0.111s-0.124-0.049-0.182-0.106c-0.106-0.106-0.106-0.182-0.106-3.547 0-2.341 0.018-3.476 0.058-3.547 0.031-0.058 0.164-0.155 0.297-0.208 0.239-0.102 0.328-0.248 0.288-0.465-0.040-0.213-0.217-0.235-1.897-0.235h-1.609l-0.022 3.928zM13.074 19.48c-0.013 0.022-0.053 0.186-0.089 0.364-0.062 0.319-0.049 0.377 0.528 2.895l0.59 2.571-1.445 0.027-0.031 0.146c-0.027 0.111-0.053 0.226-0.080 0.337-0.027 0.102-0.049 0.208-0.049 0.231s0.399 0.040 0.887 0.040c0.798 0 0.891 0.009 0.918 0.093 0.071 0.235 0.195 0.904 0.195 1.068 0 0.155-0.035 0.204-0.231 0.337-0.279 0.186-0.332 0.417-0.146 0.585 0.111 0.102 0.208 0.106 1.937 0.106 1.951 0 2.030-0.009 2.097-0.275 0.040-0.164-0.040-0.27-0.306-0.403-0.111-0.058-0.226-0.168-0.262-0.253s-0.465-1.858-0.958-3.941c-0.492-2.084-0.909-3.83-0.922-3.884-0.027-0.089-0.137-0.093-1.321-0.093-0.705 0.004-1.299 0.027-1.312 0.049zM18.669 20.673c0 1.299 0.013 1.37 0.248 1.441 0.155 0.044 0.386-0.142 0.43-0.364 0.062-0.306 0.359-0.798 0.612-1.015 0.27-0.235 0.692-0.457 0.993-0.51 0.182-0.035 0.208-0.067 0.364-0.412l0.164-0.372h-2.806l-0.004 1.232zM21.972 19.587c-0.035 0.080-0.847 1.92-1.796 4.079-1.694 3.857-1.725 3.937-1.725 4.287v0.359l2.82-0.027 3.564-8.060v-0.789h-2.797l-0.067 0.151zM25.82 19.502c-0.284 0.137-0.2 0.532 0.133 0.638 0.115 0.035 0.235 0.102 0.275 0.151 0.084 0.106 0.098 6.938 0.018 7.093-0.027 0.053-0.133 0.129-0.231 0.168-0.262 0.102-0.368 0.213-0.368 0.386 0 0.106 0.044 0.182 0.146 0.248 0.133 0.089 0.306 0.098 1.773 0.098h1.627l0.027-8.849-1.636 0.004c-1.068 0.004-1.685 0.027-1.764 0.062zM29.761 19.813v0.377l0.284 0.058c0.842 0.173 1.295 0.607 1.711 1.64 0.089 0.217 0.293 0.297 0.466 0.182l0.137-0.089v-2.54h-2.598v0.372zM11.881 23.834c-0.408 1.494-0.807 2.855-0.882 3.024-0.16 0.364-0.297 0.501-0.709 0.718-0.235 0.124-0.31 0.195-0.324 0.297-0.040 0.35 0.231 0.434 1.37 0.426 0.975-0.004 1.108-0.031 1.21-0.217 0.071-0.129 0.071-0.155-0.013-0.284-0.053-0.080-0.204-0.195-0.337-0.257-0.31-0.146-0.403-0.279-0.403-0.594 0-0.155 0.226-1.086 0.585-2.39l0.585-2.137-0.155-0.638c-0.084-0.35-0.164-0.643-0.173-0.652-0.004-0.004-0.346 1.21-0.754 2.704zM30.661 22.154c-0.044 0.067-0.106 0.239-0.142 0.377-0.080 0.297-0.31 0.599-0.603 0.78-0.208 0.133-0.208 0.137-0.208 0.479v0.346l0.239 0.115c0.275 0.133 0.461 0.386 0.599 0.816 0.124 0.39 0.222 0.497 0.43 0.474 0.284-0.027 0.301-0.129 0.301-1.747 0-1.658-0.013-1.72-0.332-1.747-0.164-0.013-0.222 0.004-0.284 0.106zM0.975 24.561c0 2.367-0.013 2.469-0.399 2.846-0.129 0.124-0.297 0.27-0.377 0.324-0.177 0.12-0.191 0.306-0.031 0.448 0.102 0.093 0.208 0.102 1.184 0.102s1.082-0.009 1.184-0.102c0.173-0.155 0.142-0.328-0.084-0.505-0.78-0.599-0.776-0.585-0.776-2.106v-1.197l-0.324-0.909c-0.177-0.501-0.337-0.922-0.35-0.935-0.018-0.009-0.027 0.904-0.027 2.035zM24.366 25.554c-0.075 0.031-0.16 0.155-0.231 0.35-0.364 0.975-0.683 1.303-1.556 1.596-0.47 0.16-0.479 0.164-0.599 0.421-0.067 0.142-0.12 0.288-0.12 0.328 0 0.053 0.332 0.067 1.485 0.067h1.49v-1.29c0-0.949-0.018-1.312-0.067-1.374-0.093-0.115-0.257-0.155-0.403-0.098zM32 25.549c-0.075 0.031-0.173 0.191-0.284 0.47-0.332 0.82-0.856 1.299-1.631 1.498l-0.297 0.075v0.692l2.678 0.027v-1.29c0-0.949-0.018-1.312-0.066-1.374-0.093-0.111-0.257-0.151-0.399-0.098zM3.569 29.203c0 0.049 0.049 0.080 0.124 0.080 0.239 0 0.253 0.067 0.253 1.246s-0.013 1.246-0.253 1.246c-0.075 0-0.124 0.031-0.124 0.080 0 0.067 0.102 0.080 0.594 0.080s0.594-0.013 0.594-0.080c0-0.049-0.049-0.080-0.124-0.080-0.217 0-0.253-0.098-0.253-0.634 0-0.497 0-0.505 0.133-0.505 0.102 0 0.199 0.093 0.43 0.408 0.164 0.222 0.364 0.514 0.452 0.647l0.155 0.244h0.364c0.199 0 0.377-0.022 0.395-0.053s-0.066-0.093-0.191-0.142c-0.177-0.071-0.301-0.195-0.625-0.634l-0.403-0.545 0.244-0.124c0.417-0.213 0.545-0.709 0.27-1.037-0.191-0.226-0.417-0.275-1.281-0.275-0.634 0-0.754 0.013-0.754 0.080zM6.384 29.194c0 0.040 0.080 0.093 0.177 0.12l0.177 0.053 0.013 1.162c0.018 1.232 0.013 1.246-0.244 1.246-0.071 0-0.12 0.035-0.12 0.080 0 0.067 0.106 0.080 0.621 0.080s0.621-0.013 0.621-0.080c0-0.044-0.049-0.080-0.106-0.080s-0.155-0.049-0.217-0.106c-0.102-0.102-0.106-0.182-0.106-1.162 0-1.139 0.018-1.219 0.301-1.219 0.080 0 0.133-0.031 0.133-0.080 0-0.067-0.106-0.080-0.621-0.080-0.479-0.004-0.63 0.013-0.63 0.067zM8.007 29.198c0 0.040 0.071 0.089 0.164 0.106l0.164 0.031v2.381l-0.177 0.044c-0.332 0.084-0.151 0.146 0.488 0.164 1.055 0.027 1.592-0.191 1.875-0.758 0.16-0.315 0.186-0.763 0.071-1.144-0.098-0.328-0.497-0.709-0.856-0.816-0.386-0.115-1.729-0.12-1.729-0.009zM11.039 29.198c0 0.040 0.071 0.089 0.155 0.106 0.102 0.022 0.168 0.075 0.191 0.155 0.018 0.067 0.035 0.576 0.035 1.131 0 1.077-0.018 1.166-0.27 1.197-0.075 0.009-0.129 0.040-0.124 0.071 0.009 0.031 0.284 0.062 0.647 0.071 1.060 0.027 1.592-0.186 1.875-0.754 0.16-0.315 0.191-0.767 0.084-1.157-0.084-0.31-0.501-0.7-0.864-0.807-0.39-0.12-1.729-0.124-1.729-0.013zM14.067 29.203c0 0.044 0.049 0.080 0.106 0.080 0.253 0 0.275 0.098 0.275 1.246 0 1.144-0.022 1.246-0.275 1.246-0.058 0-0.106 0.035-0.106 0.084 0 0.071 0.146 0.080 1.095 0.067l1.095-0.013 0.018-0.421c0.009-0.239-0.004-0.421-0.035-0.421-0.027 0-0.129 0.133-0.222 0.301-0.102 0.177-0.226 0.319-0.306 0.35-0.191 0.075-0.692 0.067-0.767-0.013-0.044-0.044-0.066-0.395-0.066-1.215v-1.153l0.173-0.044c0.093-0.027 0.182-0.075 0.195-0.111 0.018-0.049-0.133-0.067-0.576-0.067-0.501 0.004-0.603 0.018-0.603 0.084zM16.461 29.189c0.013 0.035 0.098 0.084 0.195 0.111 0.111 0.031 0.182 0.089 0.2 0.164 0.018 0.067 0.022 0.594 0.013 1.175l-0.013 1.055-0.168 0.053c-0.39 0.124-0.195 0.164 0.94 0.177 0.891 0.013 1.157 0 1.175-0.053 0.013-0.040 0.031-0.222 0.044-0.408 0.027-0.399-0.062-0.452-0.222-0.137-0.173 0.337-0.293 0.412-0.709 0.439-0.572 0.031-0.599 0.004-0.599-0.643v-0.541h0.603l0.084 0.217c0.049 0.12 0.12 0.217 0.16 0.217 0.058 0 0.071-0.124 0.071-0.541 0-0.43-0.018-0.541-0.075-0.541-0.044 0-0.106 0.084-0.137 0.186-0.067 0.2-0.257 0.301-0.55 0.301h-0.155v-1.135h0.412c0.39 0 0.421 0.009 0.567 0.164 0.084 0.089 0.168 0.213 0.191 0.275 0.067 0.208 0.16 0.067 0.177-0.266l0.018-0.332h-1.126c-0.847-0.004-1.113 0.013-1.095 0.062zM20.127 29.203c0 0.049 0.049 0.080 0.129 0.080 0.239 0 0.253 0.080 0.239 1.277l-0.013 1.131-0.177 0.053c-0.098 0.027-0.177 0.084-0.177 0.12 0 0.053 0.146 0.071 0.594 0.071 0.492 0 0.594-0.013 0.594-0.080 0-0.044-0.049-0.080-0.102-0.080-0.257 0-0.275-0.035-0.275-0.603 0-0.532 0-0.536 0.133-0.536 0.102 0 0.2 0.093 0.426 0.408 0.164 0.222 0.364 0.514 0.452 0.652l0.155 0.244 0.377-0.013c0.403-0.018 0.47-0.084 0.173-0.182-0.129-0.044-0.284-0.2-0.594-0.616l-0.421-0.559 0.262-0.146c0.288-0.164 0.39-0.332 0.39-0.643 0-0.266-0.204-0.519-0.479-0.594-0.111-0.031-0.532-0.058-0.944-0.058-0.621-0.004-0.74 0.009-0.74 0.075zM22.903 29.189c0.013 0.035 0.071 0.075 0.124 0.089 0.226 0.044 0.239 0.093 0.239 1.060 0 0.856 0.009 0.949 0.12 1.166 0.377 0.736 1.707 0.603 1.928-0.191 0.031-0.12 0.058-0.585 0.058-1.033 0-0.891 0.031-0.993 0.301-0.993 0.080 0 0.133-0.031 0.133-0.080 0-0.067-0.098-0.080-0.567-0.080s-0.567 0.013-0.567 0.080c0 0.044 0.044 0.080 0.102 0.080s0.16 0.044 0.231 0.102c0.124 0.098 0.129 0.133 0.142 0.962 0.018 0.98-0.031 1.162-0.368 1.334-0.239 0.124-0.656 0.098-0.82-0.049-0.222-0.2-0.262-0.399-0.262-1.334s0.018-1.015 0.253-1.015c0.075 0 0.124-0.031 0.124-0.080 0-0.067-0.102-0.080-0.599-0.080-0.452-0.004-0.59 0.013-0.572 0.062zM25.864 29.172c0 0.027 0.093 0.093 0.204 0.151 0.319 0.155 0.346 0.248 0.328 1.295-0.018 1.002-0.035 1.068-0.315 1.131-0.089 0.018-0.16 0.071-0.16 0.115 0 0.067 0.102 0.075 0.581 0.062 0.594-0.018 0.709-0.071 0.377-0.182-0.262-0.089-0.315-0.315-0.297-1.264l0.013-0.789 0.838 1.122c0.545 0.732 0.869 1.122 0.935 1.122 0.089 0 0.098-0.084 0.098-1.219 0-1.144 0.004-1.224 0.106-1.326 0.058-0.058 0.155-0.106 0.217-0.106s0.106-0.035 0.106-0.080c0-0.067-0.098-0.080-0.572-0.080-0.417 0-0.567 0.018-0.55 0.062 0.013 0.035 0.102 0.089 0.2 0.124 0.098 0.031 0.2 0.102 0.226 0.151s0.044 0.461 0.035 0.913l-0.013 0.825-0.758-1.037-0.763-1.033h-0.421c-0.231-0.004-0.417 0.018-0.417 0.044zM5.090 29.442c0.129 0.129 0.16 0.204 0.16 0.412 0 0.217-0.027 0.279-0.186 0.439-0.155 0.155-0.222 0.186-0.434 0.186h-0.248v-1.193h0.275c0.235 0 0.301 0.022 0.434 0.155zM9.576 29.406c0.137 0.071 0.306 0.217 0.399 0.35 0.133 0.191 0.164 0.293 0.182 0.647 0.031 0.51-0.049 0.82-0.262 1.064-0.2 0.226-0.567 0.341-0.856 0.27l-0.2-0.049-0.027-2.412h0.262c0.164 0.009 0.355 0.053 0.501 0.129zM12.542 29.371c0.466 0.195 0.661 0.541 0.661 1.188 0 0.501-0.106 0.794-0.368 1.015-0.195 0.164-0.572 0.239-0.802 0.164l-0.151-0.049-0.027-2.403h0.248c0.124 0 0.328 0.035 0.439 0.084zM21.653 29.451c0.151 0.151 0.164 0.191 0.137 0.439-0.035 0.372-0.204 0.541-0.576 0.576l-0.275 0.027v-1.206h0.275c0.235 0 0.301 0.022 0.439 0.164z"></path>
<path d="M15.53 0.022c-2.993 0.208-5.719 1.951-7.209 4.606-1.716 3.063-1.49 6.885 0.585 9.736 0.43 0.59 1.064 1.264 1.618 1.707 0.882 0.709 2.004 1.308 3.041 1.623 1.561 0.47 3.245 0.519 4.792 0.137 1.348-0.332 2.554-0.931 3.582-1.778 0.417-0.341 0.913-0.816 0.971-0.927 0.098-0.186 0.049-0.372-0.12-0.474s-0.368-0.058-0.501 0.115c-0.089 0.111-0.625 0.607-0.887 0.816-0.567 0.452-1.388 0.931-2.084 1.206-2.075 0.829-4.416 0.785-6.468-0.12-0.55-0.244-0.536-0.137-0.12-0.864 0.466-0.811 0.47-0.873 0.035-1.139-0.638-0.395-1.383-1.068-1.809-1.64-0.754-1.015-1.197-2.159-1.303-3.361l-0.022-0.257 0.94-0.009c0.922-0.009 0.949-0.013 1.033-0.075 0.186-0.142 0.186-0.421 0-0.559-0.084-0.066-0.111-0.066-1.029-0.075l-0.935-0.009 0.018-0.293c0.022-0.337 0.098-0.763 0.217-1.201 0.080-0.297 0.080-0.306 0.031-0.417-0.089-0.186-0.306-0.253-0.497-0.155-0.111 0.058-0.142 0.111-0.226 0.434-0.155 0.567-0.213 0.935-0.253 1.574-0.089 1.485 0.301 3.037 1.091 4.291 0.497 0.794 1.281 1.618 2.008 2.115 0.12 0.080 0.217 0.16 0.217 0.168 0 0.031-0.483 0.873-0.505 0.873-0.009 0-0.142-0.089-0.293-0.195-1.095-0.763-1.964-1.756-2.594-2.948-0.452-0.864-0.714-1.654-0.869-2.611-0.089-0.567-0.098-1.911-0.013-2.465 0.124-0.82 0.364-1.627 0.678-2.292l0.177-0.377 0.598 0.346c0.705 0.408 0.749 0.426 0.896 0.364 0.115-0.049 0.142-0.084 0.488-0.63 0.275-0.434 0.417-0.607 0.767-0.909 0.16-0.142 0.284-0.27 0.301-0.328 0.049-0.137 0.009-0.279-0.111-0.381-0.142-0.124-0.288-0.124-0.466 0.004-0.275 0.2-0.767 0.732-0.993 1.068-0.12 0.182-0.231 0.337-0.248 0.341-0.027 0.009-0.794-0.421-0.851-0.479-0.013-0.013 0.062-0.151 0.177-0.315 0.767-1.099 1.756-1.968 2.948-2.598 0.864-0.452 1.654-0.714 2.611-0.869 0.567-0.089 1.911-0.098 2.465-0.013 0.82 0.124 1.627 0.364 2.292 0.678l0.377 0.177-0.452 0.78c-0.474 0.82-0.501 0.887-0.408 1.068 0.053 0.102 0.186 0.182 0.306 0.182 0.182 0 0.248-0.080 0.714-0.887 0.248-0.426 0.457-0.776 0.461-0.776s0.146 0.089 0.301 0.2c0.798 0.554 1.498 1.259 2.053 2.048 0.115 0.164 0.191 0.306 0.177 0.319s-0.213 0.133-0.443 0.266l-0.417 0.239-0.164-0.231c-0.328-0.461-0.9-1.060-1.091-1.144-0.142-0.062-0.284-0.031-0.377 0.084-0.186 0.222-0.151 0.319 0.284 0.763 0.386 0.399 0.647 0.731 0.882 1.126 0.315 0.532 0.519 0.997 0.665 1.516 0.106 0.386 0.191 0.483 0.408 0.483 0.12-0.009 0.164-0.018 0.262-0.102 0.075-0.080 0.089-0.12 0.071-0.284-0.022-0.231-0.204-0.785-0.403-1.228-0.089-0.2-0.151-0.372-0.137-0.386s0.213-0.133 0.439-0.266l0.417-0.239 0.16 0.337c0.403 0.856 0.638 1.711 0.745 2.731 0.044 0.443 0.018 1.835-0.044 2.252-0.111 0.732-0.279 1.277-0.607 1.946l-0.222 0.452-0.43-0.244c-0.239-0.133-0.443-0.253-0.452-0.266-0.013-0.013 0.049-0.177 0.133-0.368 0.301-0.674 0.448-1.157 0.585-1.928 0.089-0.501 0.102-1.104 0.022-1.237-0.098-0.164-0.115-0.168-0.949-0.177l-0.771-0.009-0.035-0.288c-0.018-0.16-0.058-0.332-0.080-0.386-0.089-0.191-0.35-0.257-0.51-0.133-0.133 0.102-0.173 0.239-0.137 0.443 0.142 0.816 0.004 1.884-0.346 2.673l-0.075 0.173-0.173-0.098c-0.523-0.297-0.807-0.474-0.798-0.497 0.004-0.013 0.053-0.164 0.111-0.328 0.12-0.355 0.222-0.785 0.2-1.091-0.018-0.235-0.022-0.204-0.102-0.332v0c-0.067-0.071-0.16-0.115-0.257-0.115l-0.78-0.009c-1.020-0.009-1.095 0-1.197 0.155-0.027 0.044-0.062 0.177-0.075 0.297-0.049 0.417-0.226 0.736-0.536 0.958-0.443 0.319-1.077 0.319-1.525 0-0.709-0.51-0.709-1.6 0-2.11 0.257-0.186 0.492-0.248 0.904-0.235l0.2 0.004c0.089 0.004 0.177-0.031 0.239-0.093v0c0.080-0.102 0.098-0.12 0.098-0.248 0-0.173-0.080-0.279-0.253-0.337-0.16-0.053-0.705-0.044-0.935 0.018-0.665 0.173-1.268 0.767-1.432 1.41l-0.040 0.16-1.037 0.018 0.018-0.129c0.146-0.94 0.776-1.8 1.645-2.239 0.732-0.368 1.667-0.412 2.474-0.106 0.239 0.089 0.63 0.324 0.86 0.514 0.222 0.186 0.488 0.523 0.692 0.873 0.151 0.262 0.208 0.324 0.332 0.359 0.208 0.058 0.434-0.111 0.434-0.324 0-0.279-0.554-1.077-1.011-1.459-0.124-0.102-0.222-0.204-0.217-0.222 0.022-0.080 0.492-0.887 0.519-0.887 0.049 0 0.408 0.288 0.647 0.523 0.257 0.248 0.497 0.563 0.745 0.966 0.208 0.341 0.244 0.381 0.364 0.43 0.204 0.089 0.465-0.089 0.465-0.315 0-0.062-0.027-0.164-0.062-0.231-0.124-0.239-0.567-0.878-0.763-1.099-0.572-0.661-1.494-1.259-2.385-1.552-0.386-0.129-0.43-0.129-0.563-0.040-0.186 0.124-0.226 0.301-0.111 0.479 0.058 0.084 0.115 0.12 0.31 0.186 0.31 0.106 0.621 0.226 0.674 0.262 0.035 0.022-0.009 0.115-0.208 0.47-0.137 0.244-0.266 0.448-0.288 0.457s-0.102-0.013-0.182-0.049c-0.607-0.262-1.552-0.319-2.265-0.146-0.794 0.191-1.552 0.683-2.048 1.312l-0.12 0.155-0.448-0.257c-0.248-0.142-0.457-0.262-0.461-0.266-0.018-0.018 0.129-0.217 0.359-0.488 0.523-0.616 1.326-1.139 2.163-1.41 0.386-0.124 0.47-0.2 0.47-0.412 0-0.155-0.084-0.27-0.239-0.324-0.115-0.040-0.137-0.040-0.466 0.067-0.186 0.062-0.434 0.155-0.55 0.208-0.173 0.080-0.213 0.089-0.235 0.053-0.102-0.16-0.514-0.878-0.505-0.887 0.004-0.004 0.133-0.062 0.284-0.133 0.652-0.293 1.405-0.488 2.066-0.536l0.27-0.022v0.745c0 0.829 0.009 0.878 0.199 0.966 0.129 0.062 0.217 0.058 0.332-0.013 0.168-0.102 0.173-0.133 0.186-0.949l0.009-0.749 0.231 0.022c0.355 0.031 0.776 0.106 1.060 0.191 0.501 0.151 0.47 0.146 0.585 0.089 0.195-0.093 0.257-0.301 0.16-0.497-0.089-0.173-0.665-0.355-1.494-0.466-0.395-0.053-0.567-0.062-1.091-0.049-0.696 0.018-1.073 0.067-1.645 0.217-0.541 0.142-0.918 0.279-1.423 0.528-0.732 0.359-0.736 0.381-0.191 1.308 0.204 0.346 0.364 0.63 0.359 0.634-0.74 0.545-1.099 0.904-1.538 1.556-0.408 0.572-0.767 1.383-0.727 1.574 0.027 0.146 0.168 0.257 0.275 0.275 0.186 0.035 0.381-0.089 0.426-0.275 0.035-0.146 0.262-0.607 0.293-0.598 0.018 0.004 0.231 0.124 0.474 0.262l0.443 0.253-0.040 0.080c-0.204 0.408-0.372 1.383-0.279 1.609 0.084 0.208 0.124 0.217 0.98 0.231l0.767 0.013 0.040 0.16c0.080 0.306 0.275 0.634 0.536 0.891 0.195 0.195 0.293 0.262 0.514 0.368 0.151 0.071 0.328 0.142 0.395 0.155l0.12 0.027 0.009 0.519c0.009 0.439 0 0.519-0.035 0.519-0.084 0-0.457-0.089-0.634-0.151-0.572-0.2-1.144-0.656-1.516-1.21-0.275-0.408-0.324-0.408-1.144 0.075-0.355 0.208-0.647 0.377-0.656 0.377s-0.080-0.164-0.155-0.364c-0.155-0.399-0.226-0.483-0.421-0.483-0.155 0-0.27 0.071-0.332 0.204v0c-0.035 0.075-0.040 0.155-0.013 0.235l0.062 0.182c0.279 0.825 0.891 1.711 1.6 2.323 0.488 0.421 1.246 0.891 1.627 1.011 0.195 0.062 0.226 0.066 0.328 0.027 0.129-0.049 0.248-0.208 0.248-0.328 0-0.089-0.106-0.266-0.182-0.306-0.027-0.013-0.133-0.058-0.239-0.098-0.417-0.164-1.117-0.638-1.525-1.037-0.222-0.217-0.621-0.692-0.621-0.736 0-0.018 0.785-0.488 0.878-0.523 0.035-0.013 0.102 0.049 0.239 0.208 0.483 0.576 1.179 1.015 1.92 1.206 0.842 0.217 1.609 0.155 2.474-0.2 0.732-0.301 0.94-0.519 0.767-0.802-0.058-0.098-0.2-0.191-0.288-0.191-0.027 0-0.226 0.089-0.448 0.195-0.417 0.204-0.771 0.328-1.037 0.364l-0.16 0.022 0.018-1.046 0.12-0.027c0.067-0.013 0.248-0.084 0.399-0.16 0.536-0.262 0.909-0.736 1.082-1.392 0.009-0.027 0.137-0.040 0.51-0.040 0.461 0 0.501 0.004 0.488 0.053-0.009 0.031-0.035 0.16-0.067 0.288-0.049 0.235-0.16 0.536-0.284 0.758-0.098 0.182-0.089 0.332 0.031 0.448 0.053 0.053 0.377 0.257 0.723 0.457l0.625 0.359-0.049 0.084c-0.027 0.049-0.164 0.217-0.301 0.377-0.217 0.257-0.248 0.306-0.248 0.408 0 0.16 0.067 0.275 0.2 0.337 0.168 0.080 0.275 0.044 0.47-0.155 0.794-0.825 1.343-2.035 1.459-3.214l0.022-0.204h1.077l-0.018 0.173c-0.031 0.337-0.195 1.082-0.324 1.476-0.377 1.126-1.064 2.172-1.915 2.922-0.377 0.328-0.749 0.603-0.78 0.567-0.013-0.013-0.182-0.306-0.377-0.643-0.359-0.625-0.474-0.78-0.599-0.789-0.284-0.013-0.439 0.137-0.408 0.39 0.009 0.071 0.16 0.364 0.399 0.771 0.213 0.364 0.372 0.669 0.359 0.683s-0.177 0.093-0.359 0.173c-0.656 0.297-1.396 0.488-2.163 0.563l-0.204 0.018v-0.102c0-0.16 0.080-0.989 0.093-1.002 0.009-0.004 0.168-0.031 0.359-0.062 0.426-0.062 0.754-0.142 0.856-0.208 0.182-0.12 0.168-0.452-0.022-0.567-0.124-0.075-0.173-0.071-0.594 0.018-0.191 0.040-0.514 0.084-0.718 0.102-0.346 0.027-0.372 0.031-0.457 0.111-0.049 0.044-0.093 0.111-0.102 0.146s-0.044 0.395-0.080 0.802c-0.035 0.408-0.066 0.745-0.075 0.749-0.031 0.031-0.749-0.137-1.135-0.266-0.244-0.080-0.483-0.151-0.532-0.151-0.115 0-0.244 0.102-0.297 0.235s-0.013 0.275 0.111 0.381c0.111 0.093 0.909 0.355 1.343 0.443 1.193 0.235 2.868-0.035 4.123-0.665 1.166-0.585 2.243-1.512 2.922-2.514l0.111-0.164 0.541 0.301c0.718 0.403 0.825 0.452 0.944 0.426 0.16-0.031 0.253-0.16 0.55-0.758 0.55-1.095 0.745-1.791 0.838-2.975 0.222-2.851-0.692-5.422-2.62-7.351-1.889-1.849-4.402-2.78-7.102-2.594z"></path>
</svg>
