<?xml version="1.0" encoding="utf-8"?>
<!-- Generator: Adobe Illustrator 26.5.0, SVG Export Plug-In . SVG Version: 6.00 Build 0)  -->
<svg version="1.1" id="Слой_1" xmlns="http://www.w3.org/2000/svg" xmlns:xlink="http://www.w3.org/1999/xlink" x="0px" y="0px"
	 viewBox="0 0 87 32" style="enable-background:new 0 0 87 32;" xml:space="preserve">
<style type="text/css">
	.st0{fill:#DA291C;}
</style>
<path class="st0" d="M34.7,5.7c-0.3,0.3-0.1,0.7,0.5,1c0.3,0.1,0.6,0.3,0.7,0.4s1,2.9,2.2,6.3c1.7,5.1,2.1,6.1,2.3,6.1
	c0.3,0,0.4-0.4,1.5-3.9l1.2-4l0-3.3l-0.4,1.2c-0.2,0.7-0.4,1.3-0.4,1.4s-0.4-0.8-0.9-2c-0.4-1.2-0.9-2.5-1-2.9l-0.2-0.6h-2.6
	C35.4,5.5,34.9,5.6,34.7,5.7L34.7,5.7z M43.9,11.8v6.3l-0.5,0.2c-0.8,0.3-0.9,0.6-0.5,1c0.2,0.2,0.7,0.2,3.2,0.2
	c1.8,0,3.1-0.1,3.3-0.1c0.5-0.2,0.3-0.7-0.2-0.9l-0.5-0.2V6.9L49,6.6c0.6-0.3,0.7-0.7,0.2-1c-0.2-0.1-1.3-0.1-2.8-0.1h-2.5
	L43.9,11.8L43.9,11.8z M55.2,6c-0.1,0.4,0,1.2,0.8,4.6c0.5,2.2,0.9,4.1,0.9,4.2S56.4,15,55.8,15c-1.1,0-1.2,0-1.2,0.3
	c-0.2,0.8-0.2,0.8,1.3,0.9l1.4,0l0.4,1.9l-0.4,0.4c-0.2,0.2-0.4,0.5-0.4,0.6c0,0.5,0.3,0.6,3.3,0.6c2.5,0,3,0,3.2-0.2
	c0.3-0.3,0.3-0.4-0.3-0.9l-0.5-0.4L61,11.8l-1.5-6.3h-4.1L55.2,6L55.2,6z M64.2,7.6l0,2.1l0.4,0c0.4,0,0.4,0,0.8-0.8
	c0.5-1.2,1.2-1.8,2.4-2.1c0.3-0.1,0.4-0.3,0.6-0.7l0.2-0.6h-4.5C64.2,5.5,64.2,7.6,64.2,7.6z M69.4,6c-0.1,0.3-1.4,3.2-2.8,6.5
	c-2,4.5-2.6,6.1-2.6,6.6v0.6h4.5l2.9-6.5c2.2-5,2.9-6.6,2.9-7V5.5h-4.5L69.4,6L69.4,6z M75.5,5.7c-0.3,0.3-0.1,0.7,0.4,0.9l0.4,0.2
	v11.3l-0.4,0.2c-0.5,0.3-0.6,0.6-0.4,0.9c0.1,0.2,0.7,0.2,2.8,0.2h2.7V5.5h-2.7C76.2,5.5,75.7,5.6,75.5,5.7L75.5,5.7z M81.9,6.2
	c0,0.6,0,0.7,0.3,0.7c1,0,2.2,1,2.7,2.2c0.2,0.5,0.3,0.7,0.6,0.7c0.5,0,0.6-0.5,0.6-2.5V5.5h-4.2V6.2L81.9,6.2z M53.4,12.7
	c-0.6,2.3-1.3,4.5-1.5,4.8c-0.2,0.4-0.5,0.7-0.9,0.9c-0.7,0.4-0.8,0.8-0.3,1c0.2,0.1,1,0.1,1.9,0.1c1.3,0,1.6,0,1.8-0.2
	c0.3-0.3,0.3-0.4-0.4-0.9c-0.5-0.3-0.6-0.5-0.7-0.9c0-0.3,0.3-1.9,0.9-3.9l0.9-3.4l-0.2-0.9c-0.1-0.5-0.3-0.9-0.3-0.9
	C54.6,8.4,54,10.3,53.4,12.7L53.4,12.7z M83.4,9.8c-0.1,0.1-0.2,0.4-0.3,0.7c-0.1,0.3-0.4,0.7-0.7,1c-0.8,0.6-0.8,1.2,0,1.8
	c0.4,0.3,0.6,0.7,0.8,1.1c0.2,0.7,0.5,0.9,0.9,0.8c0.2-0.1,0.2-0.4,0.2-2.7c0-2.6-0.1-2.9-0.5-2.9C83.6,9.6,83.5,9.7,83.4,9.8
	L83.4,9.8z M36,13.9c0,3.8,0,4-0.9,4.7c-1,0.8-0.6,1.1,1.6,1.1c1.5,0,2.1-0.1,2.1-0.5c0-0.1-0.3-0.5-0.8-0.8l-0.8-0.7l-0.1-2.3
	c-0.1-2.1-0.1-2.4-0.6-3.5c-0.3-0.7-0.5-1.3-0.5-1.3C36.1,10.4,36,12,36,13.9L36,13.9z M72.8,16.2c-0.2,0.5-0.6,1.1-0.8,1.3
	c-0.4,0.4-1.4,0.9-1.8,1c-0.2,0-0.8,0.8-0.8,1.1c0,0.1,1.1,0.1,2.4,0.1h2.4v-2c0-1.1,0-2.1-0.1-2.2s-0.3-0.2-0.4-0.2
	C73.3,15.3,73.1,15.4,72.8,16.2L72.8,16.2z M85,16c-0.4,1-1.5,2-2.4,2.3c-0.6,0.2-0.7,0.2-0.7,0.7v0.5h4.4l0-1.8
	c0-2.2-0.1-2.5-0.6-2.5C85.3,15.2,85.3,15.3,85,16L85,16z M34.7,21.8c0,0.1,0.2,0.2,0.4,0.2l0.4,0.1v4.8L35.1,27
	c-0.6,0.3-0.4,0.4,0.8,0.4c1.3,0,1.5-0.1,0.9-0.4c-0.4-0.2-0.4-0.2-0.4-1.2c0-1,0-1,0.3-1c0.3,0,0.5,0.3,1.2,1.3l0.9,1.3h0.8
	c0.9,0,1-0.2,0.4-0.4c-0.3-0.1-0.8-0.6-1.3-1.3l-0.9-1.2l0.5-0.3c1-0.5,1.2-1.8,0.3-2.4c-0.4-0.2-0.7-0.3-2.2-0.3
	C35.5,21.6,34.7,21.7,34.7,21.8L34.7,21.8z M40.5,21.8c0,0.1,0.2,0.2,0.4,0.3l0.4,0.2v2.2c0,1.2,0,2.3-0.1,2.4
	c-0.1,0.1-0.3,0.2-0.4,0.3c-0.7,0.2-0.3,0.4,1,0.4c1.3,0,1.6-0.1,0.9-0.4l-0.4-0.2l0.1-4.9l0.4,0c0.2,0,0.4-0.1,0.4-0.2
	c0-0.1-0.6-0.1-1.3-0.1S40.5,21.7,40.5,21.8L40.5,21.8z M43.9,21.8c0,0.1,0.2,0.2,0.4,0.2l0.4,0.1v4.8l-0.5,0.2
	c-0.7,0.3-0.2,0.4,1.5,0.3c2.6-0.1,3.7-0.9,3.7-3c0-1.3-0.4-1.9-1.4-2.5c-0.6-0.3-0.9-0.4-2.4-0.4C44.6,21.6,43.9,21.7,43.9,21.8
	L43.9,21.8z M50.1,21.8c0,0.1,0.2,0.2,0.4,0.2l0.4,0.1V27l-0.4,0.1c-0.2,0-0.4,0.2-0.4,0.3c0,0.1,0.5,0.1,1.6,0.1
	c1.9-0.1,2.7-0.4,3.4-1.2c0.3-0.4,0.4-0.7,0.5-1.4c0.1-1.5-0.5-2.6-1.8-3C53.2,21.6,50.1,21.6,50.1,21.8L50.1,21.8z M56.4,21.8
	c0,0.1,0.2,0.2,0.4,0.2l0.4,0.1V27l-0.4,0.1c-0.2,0-0.4,0.2-0.4,0.2c0,0.1,0.8,0.1,2.3,0.1l2.3,0l0-0.8c0-0.5,0-0.8-0.1-0.8
	s-0.3,0.3-0.5,0.6c-0.3,0.5-0.5,0.7-1,0.7c-0.3,0.1-0.8,0-1,0l-0.4-0.1l0-2.4c0-2.4,0-2.4,0.4-2.5c0.2,0,0.3-0.1,0.3-0.2
	s-0.6-0.1-1.2-0.1S56.4,21.7,56.4,21.8L56.4,21.8z M61.4,21.8c0,0.1,0.2,0.2,0.4,0.2l0.4,0.1V27l-0.4,0.1c-0.2,0-0.4,0.2-0.4,0.2
	c0,0.1,0.9,0.1,2.4,0.1c2.4,0,2.4,0,2.4-0.3c0-0.2,0-0.6,0.1-0.9c0.1-0.8-0.2-0.7-0.6,0c-0.3,0.7-0.6,0.8-1.7,0.7l-0.8,0l-0.1-2.4
	h0.5c0.5,0,1,0.4,1,0.8c0,0.1,0.1,0.2,0.2,0.2c0.2,0,0.2-0.2,0.2-1.2c0-1.1-0.2-1.5-0.4-0.9c-0.2,0.5-0.5,0.8-1,0.8h-0.5v-2.3H64
	c0.7,0,0.9,0.1,1.2,0.4c0.2,0.2,0.4,0.4,0.4,0.5s0.1,0.1,0.2,0.1c0.2,0,0.2-0.2,0.2-0.7v-0.7h-2.2C62.5,21.6,61.4,21.7,61.4,21.8
	L61.4,21.8z M69,21.8c0,0.1,0.2,0.2,0.4,0.2l0.4,0.1v4.8L69.4,27c-0.6,0.3-0.4,0.4,0.9,0.4c1.3,0,1.5-0.1,0.8-0.4
	c-0.4-0.2-0.4-0.2-0.4-1.2c0-1,0-1,0.3-1c0.3,0,0.5,0.3,1.3,1.3l0.9,1.3h0.8c0.8,0,1-0.2,0.3-0.4C74,27,73.5,26.5,73,25.8
	c-0.4-0.6-0.8-1.1-0.8-1.2s0.2-0.2,0.5-0.4c0.9-0.6,1-1.8,0.2-2.4c-0.4-0.2-0.7-0.3-2.2-0.3C69.8,21.6,69,21.7,69,21.8L69,21.8z
	 M74.7,21.7c0.1,0.1,0.2,0.2,0.4,0.3c0.3,0.2,0.3,0.3,0.4,2.4c0.1,2.2,0.1,2.2,0.5,2.6c1.1,0.9,3,0.7,3.5-0.4
	c0.2-0.3,0.2-0.9,0.2-2.1c0-1.9,0.2-2.4,0.7-2.5c0.2,0,0.3-0.1,0.3-0.2s-0.6-0.1-1.2-0.1c-0.7,0-1.2,0.1-1.2,0.1
	c0,0.1,0.1,0.1,0.3,0.1c0.6,0,0.7,0.3,0.7,2.4c0,1.6,0,2-0.3,2.2c-0.6,0.7-2.1,0.6-2.5-0.1c-0.1-0.3-0.2-1-0.1-2.4c0-2,0-2,0.4-2.1
	c0.2,0,0.3-0.1,0.3-0.2s-0.6-0.1-1.3-0.1C75.2,21.6,74.7,21.7,74.7,21.7L74.7,21.7z M80.9,21.8c0,0.1,0.1,0.1,0.2,0.1
	s0.3,0.1,0.5,0.3c0.3,0.3,0.3,0.5,0.3,2.3c0,1.1-0.1,2.1-0.1,2.2s-0.3,0.3-0.5,0.4c-0.7,0.2-0.2,0.4,1,0.4c0.9,0,1.2,0,1.1-0.2
	c0-0.1-0.2-0.2-0.3-0.2c-0.5-0.1-0.6-0.4-0.6-2.4v-1.9l1.7,2.4c1,1.3,1.8,2.4,2,2.4c0.2,0,0.2-0.4,0.2-2.6c0-2.7,0.1-2.9,0.6-2.9
	c0.1,0,0.3-0.1,0.3-0.1s-0.5-0.1-1.2-0.1c-1.2,0-1.4,0.1-0.7,0.4c0.5,0.2,0.6,0.6,0.6,2.5l0,1.4l-3.2-4.3h-0.8
	C81.3,21.6,80.9,21.7,80.9,21.8L80.9,21.8z M37.9,22.3c0.3,0.3,0.4,0.5,0.3,0.9c-0.1,0.7-0.7,1.2-1.3,1.2h-0.5v-2.5h0.6
	C37.3,21.9,37.6,22,37.9,22.3L37.9,22.3z M47.2,22.3c0.8,0.5,1,1,1.1,2c0.2,1.7-0.6,2.8-1.9,2.8c-0.3,0-0.7-0.1-0.8-0.2
	c-0.1-0.1-0.2-0.9-0.2-2.5v-2.4h0.6C46.5,21.9,46.9,22,47.2,22.3L47.2,22.3z M53.5,22.2c1.4,0.7,1.6,3.5,0.4,4.5
	c-0.5,0.4-1.7,0.4-2,0c-0.1-0.2-0.1-1.3-0.1-2.5v-2.3h0.6C52.7,21.9,53.2,22.1,53.5,22.2z M72.1,22.3c0.8,0.8,0.1,2.1-1,2.1h-0.5
	v-2.5h0.6C71.6,21.9,71.9,22,72.1,22.3L72.1,22.3z"/>
<path class="st0" d="M14.8,0.1C9.5,0.4,4.7,3.5,2,8.2c-3,5.4-2.6,12.2,1,17.2c0.8,1,1.9,2.2,2.9,3c1.6,1.3,3.5,2.3,5.4,2.9
	c2.8,0.8,5.7,0.9,8.5,0.2c2.4-0.6,4.5-1.6,6.3-3.1c0.7-0.6,1.6-1.4,1.7-1.6c0.2-0.3,0.1-0.7-0.2-0.8s-0.7-0.1-0.9,0.2
	c-0.2,0.2-1.1,1.1-1.6,1.4c-1,0.8-2.5,1.6-3.7,2.1c-3.7,1.5-7.8,1.4-11.4-0.2c-1-0.4-0.9-0.2-0.2-1.5c0.8-1.4,0.8-1.5,0.1-2
	c-1.1-0.7-2.4-1.9-3.2-2.9c-1.3-1.8-2.1-3.8-2.3-5.9l0-0.5l1.7,0c1.6,0,1.7,0,1.8-0.1c0.3-0.3,0.3-0.7,0-1c-0.1-0.1-0.2-0.1-1.8-0.1
	l-1.7,0l0-0.5c0-0.6,0.2-1.3,0.4-2.1c0.1-0.5,0.1-0.5,0.1-0.7c-0.2-0.3-0.5-0.4-0.9-0.3c-0.2,0.1-0.3,0.2-0.4,0.8
	c-0.3,1-0.4,1.7-0.4,2.8c-0.2,2.6,0.5,5.4,1.9,7.6c0.9,1.4,2.3,2.9,3.6,3.7C8.8,26.7,9,26.9,9,26.9c0,0.1-0.9,1.5-0.9,1.5
	c0,0-0.3-0.2-0.5-0.3C5.6,26.7,4.1,25,3,22.9c-0.8-1.5-1.3-2.9-1.5-4.6c-0.2-1-0.2-3.4,0-4.4c0.2-1.4,0.6-2.9,1.2-4.1l0.3-0.7L4,9.8
	c1.2,0.7,1.3,0.8,1.6,0.6c0.2-0.1,0.3-0.1,0.9-1.1c0.5-0.8,0.7-1.1,1.4-1.6c0.3-0.3,0.5-0.5,0.5-0.6c0.1-0.2,0-0.5-0.2-0.7
	c-0.3-0.2-0.5-0.2-0.8,0C6.8,6.8,5.9,7.8,5.5,8.4C5.3,8.7,5.1,9,5.1,9c0,0-1.4-0.7-1.5-0.8c0,0,0.1-0.3,0.3-0.6C5.3,5.6,7,4.1,9.1,3
	c1.5-0.8,2.9-1.3,4.6-1.5c1-0.2,3.4-0.2,4.4,0C19.5,1.6,21,2,22.2,2.6l0.7,0.3L22,4.3c-0.8,1.4-0.9,1.6-0.7,1.9
	c0.1,0.2,0.3,0.3,0.5,0.3c0.3,0,0.4-0.1,1.3-1.6c0.4-0.8,0.8-1.4,0.8-1.4s0.3,0.2,0.5,0.4c1.4,1,2.6,2.2,3.6,3.6
	c0.2,0.3,0.3,0.5,0.3,0.6S28,8.3,27.6,8.6L26.9,9l-0.3-0.4c-0.6-0.8-1.6-1.9-1.9-2c-0.3-0.1-0.5-0.1-0.7,0.1
	c-0.3,0.4-0.3,0.6,0.5,1.3c0.7,0.7,1.1,1.3,1.6,2c0.6,0.9,0.9,1.8,1.2,2.7c0.2,0.7,0.3,0.9,0.7,0.9c0.2,0,0.3,0,0.5-0.2
	c0.1-0.1,0.2-0.2,0.1-0.5c0-0.4-0.4-1.4-0.7-2.2c-0.2-0.4-0.3-0.7-0.2-0.7s0.4-0.2,0.8-0.5l0.7-0.4l0.3,0.6c0.7,1.5,1.1,3,1.3,4.8
	c0.1,0.8,0,3.2-0.1,4c-0.2,1.3-0.5,2.3-1.1,3.4l-0.4,0.8l-0.8-0.4c-0.4-0.2-0.8-0.4-0.8-0.5c0,0,0.1-0.3,0.2-0.7
	c0.5-1.2,0.8-2,1-3.4c0.2-0.9,0.2-2,0-2.2c-0.2-0.3-0.2-0.3-1.7-0.3l-1.4,0l-0.1-0.5c0-0.3-0.1-0.6-0.1-0.7
	c-0.2-0.3-0.6-0.5-0.9-0.2c-0.2,0.2-0.3,0.4-0.2,0.8c0.3,1.4,0,3.3-0.6,4.7l-0.1,0.3l-0.3-0.2C22.5,19,22,18.7,22,18.7
	c0,0,0.1-0.3,0.2-0.6c0.2-0.6,0.4-1.4,0.4-1.9c0-0.4,0-0.4-0.2-0.6l0,0c-0.1-0.1-0.3-0.2-0.5-0.2l-1.4,0c-1.8,0-1.9,0-2.1,0.3
	c0,0.1-0.1,0.3-0.1,0.5c-0.1,0.7-0.4,1.3-0.9,1.7c-0.8,0.6-1.9,0.6-2.7,0c-1.3-0.9-1.3-2.8,0-3.7c0.5-0.3,0.9-0.4,1.6-0.4l0.4,0
	c0.2,0,0.3-0.1,0.4-0.2l0,0c0.1-0.2,0.2-0.2,0.2-0.4c0-0.3-0.1-0.5-0.4-0.6c-0.3-0.1-1.2-0.1-1.7,0c-1.2,0.3-2.2,1.4-2.5,2.5
	l-0.1,0.3l-1.8,0l0-0.2c0.3-1.7,1.4-3.2,2.9-4c1.3-0.7,2.9-0.7,4.4-0.2c0.4,0.2,1.1,0.6,1.5,0.9c0.4,0.3,0.9,0.9,1.2,1.5
	c0.3,0.5,0.4,0.6,0.6,0.6c0.4,0.1,0.8-0.2,0.8-0.6c0-0.5-1-1.9-1.8-2.6c-0.2-0.2-0.4-0.4-0.4-0.4c0-0.1,0.9-1.6,0.9-1.6
	c0.1,0,0.7,0.5,1.1,0.9c0.5,0.4,0.9,1,1.3,1.7c0.4,0.6,0.4,0.7,0.6,0.8c0.4,0.2,0.8-0.2,0.8-0.6c0-0.1,0-0.3-0.1-0.4
	c-0.2-0.4-1-1.6-1.3-1.9c-1-1.2-2.6-2.2-4.2-2.7c-0.7-0.2-0.8-0.2-1-0.1c-0.3,0.2-0.4,0.5-0.2,0.8c0.1,0.1,0.2,0.2,0.5,0.3
	C19,8,19.6,8.2,19.6,8.3c0.1,0,0,0.2-0.4,0.8c-0.2,0.4-0.5,0.8-0.5,0.8s-0.2,0-0.3-0.1c-1.1-0.5-2.7-0.6-4-0.3
	c-1.4,0.3-2.7,1.2-3.6,2.3l-0.2,0.3l-0.8-0.5C9.4,11.4,9,11.2,9,11.2c0,0,0.2-0.4,0.6-0.9c0.9-1.1,2.3-2,3.8-2.5
	c0.7-0.2,0.8-0.4,0.8-0.7c0-0.3-0.1-0.5-0.4-0.6c-0.2-0.1-0.2-0.1-0.8,0.1c-0.3,0.1-0.8,0.3-1,0.4c-0.3,0.1-0.4,0.2-0.4,0.1
	c-0.2-0.3-0.9-1.6-0.9-1.6c0,0,0.2-0.1,0.5-0.2c1.2-0.5,2.5-0.9,3.7-0.9l0.5,0v1.3c0,1.5,0,1.6,0.4,1.7c0.2,0.1,0.4,0.1,0.6,0
	c0.3-0.2,0.3-0.2,0.3-1.7l0-1.3l0.4,0c0.6,0.1,1.4,0.2,1.9,0.3C19.9,5,19.8,5,20,4.9c0.3-0.2,0.5-0.5,0.3-0.9
	c-0.2-0.3-1.2-0.6-2.6-0.8c-0.7-0.1-1-0.1-1.9-0.1c-1.2,0-1.9,0.1-2.9,0.4c-1,0.3-1.6,0.5-2.5,0.9C9,5,9,5.1,10,6.7
	c0.4,0.6,0.6,1.1,0.6,1.1c-1.3,1-1.9,1.6-2.7,2.8c-0.7,1-1.4,2.4-1.3,2.8c0,0.3,0.3,0.5,0.5,0.5c0.3,0.1,0.7-0.2,0.8-0.5
	c0.1-0.3,0.5-1.1,0.5-1.1c0,0,0.4,0.2,0.8,0.5l0.8,0.4l-0.1,0.1c-0.4,0.7-0.7,2.4-0.5,2.8c0.1,0.4,0.2,0.4,1.7,0.4l1.4,0l0.1,0.3
	c0.1,0.5,0.5,1.1,0.9,1.6c0.3,0.3,0.5,0.5,0.9,0.7c0.3,0.1,0.6,0.3,0.7,0.3l0.2,0l0,0.9c0,0.8,0,0.9-0.1,0.9c-0.1,0-0.8-0.2-1.1-0.3
	c-1-0.4-2-1.2-2.7-2.1c-0.5-0.7-0.6-0.7-2,0.1c-0.6,0.4-1.1,0.7-1.2,0.7S8.2,19.4,8,19.1c-0.3-0.7-0.4-0.9-0.7-0.9
	c-0.3,0-0.5,0.1-0.6,0.4l0,0c-0.1,0.1-0.1,0.3,0,0.4l0.1,0.3c0.5,1.5,1.6,3,2.8,4.1c0.9,0.7,2.2,1.6,2.9,1.8c0.3,0.1,0.4,0.1,0.6,0
	c0.2-0.1,0.4-0.4,0.4-0.6c0-0.2-0.2-0.5-0.3-0.5c0,0-0.2-0.1-0.4-0.2c-0.7-0.3-2-1.1-2.7-1.8C9.7,21.7,9,20.9,9,20.8
	c0,0,1.4-0.9,1.6-0.9c0.1,0,0.2,0.1,0.4,0.4c0.9,1,2.1,1.8,3.4,2.1c1.5,0.4,2.8,0.3,4.4-0.4c1.3-0.5,1.7-0.9,1.4-1.4
	c-0.1-0.2-0.4-0.3-0.5-0.3c0,0-0.4,0.2-0.8,0.3c-0.7,0.4-1.4,0.6-1.8,0.6l-0.3,0l0-1.9l0.2,0c0.1,0,0.4-0.1,0.7-0.3
	c0.9-0.5,1.6-1.3,1.9-2.5c0,0,0.2-0.1,0.9-0.1c0.8,0,0.9,0,0.9,0.1c0,0.1-0.1,0.3-0.1,0.5c-0.1,0.4-0.3,0.9-0.5,1.3
	c-0.2,0.3-0.2,0.6,0.1,0.8c0.1,0.1,0.7,0.5,1.3,0.8l1.1,0.6L23,20.9c0,0.1-0.3,0.4-0.5,0.7c-0.4,0.5-0.4,0.5-0.4,0.7
	c0,0.3,0.1,0.5,0.4,0.6c0.3,0.1,0.5,0.1,0.8-0.3c1.4-1.5,2.4-3.6,2.6-5.7l0-0.4h1.9l0,0.3c-0.1,0.6-0.3,1.9-0.6,2.6
	c-0.7,2-1.9,3.8-3.4,5.2c-0.7,0.6-1.3,1.1-1.4,1c0,0-0.3-0.5-0.7-1.1c-0.6-1.1-0.8-1.4-1.1-1.4c-0.5,0-0.8,0.2-0.7,0.7
	c0,0.1,0.3,0.6,0.7,1.4c0.4,0.6,0.7,1.2,0.6,1.2s-0.3,0.2-0.6,0.3c-1.2,0.5-2.5,0.9-3.8,1l-0.4,0v-0.2c0-0.3,0.1-1.7,0.2-1.8
	c0,0,0.3-0.1,0.6-0.1c0.8-0.1,1.3-0.3,1.5-0.4c0.3-0.2,0.3-0.8,0-1c-0.2-0.1-0.3-0.1-1,0c-0.3,0.1-0.9,0.1-1.3,0.2
	c-0.6,0-0.7,0.1-0.8,0.2c-0.1,0.1-0.2,0.2-0.2,0.3s-0.1,0.7-0.1,1.4s-0.1,1.3-0.1,1.3c-0.1,0.1-1.3-0.2-2-0.5
	c-0.4-0.1-0.9-0.3-0.9-0.3c-0.2,0-0.4,0.2-0.5,0.4s0,0.5,0.2,0.7c0.2,0.2,1.6,0.6,2.4,0.8c2.1,0.4,5.1-0.1,7.3-1.2
	c2.1-1,4-2.7,5.2-4.4l0.2-0.3l1,0.5c1.3,0.7,1.5,0.8,1.7,0.8c0.3-0.1,0.4-0.3,1-1.3c1-1.9,1.3-3.2,1.5-5.3c0.4-5-1.2-9.6-4.6-13
	C24,1.4,19.5-0.3,14.8,0.1L14.8,0.1z"/>
</svg>
