<svg aria-hidden="true" style="position: absolute; width: 0; height: 0; overflow: hidden;" version="1.1" xmlns="http://www.w3.org/2000/svg" xmlns:xlink="http://www.w3.org/1999/xlink">
<defs>
<symbol id="icon-logo-text" viewBox="0 0 76 32">
<path d="M8.45 31.798h-2.272c-0.503-0.789-0.958-1.471-1.364-2.046s-0.847-1.168-1.322-1.778h-0.864v2.676c0 0.139 0.022 0.261 0.065 0.366s0.137 0.185 0.279 0.241c0.071 0.028 0.196 0.054 0.375 0.077s0.329 0.038 0.452 0.042v0.422h-3.568v-0.422c0.095-0.008 0.233-0.022 0.413-0.042s0.306-0.046 0.378-0.077c0.119-0.051 0.205-0.127 0.259-0.226s0.080-0.226 0.080-0.381v-6.102c0-0.139-0.020-0.262-0.059-0.369s-0.133-0.188-0.28-0.244c-0.099-0.036-0.228-0.068-0.387-0.098s-0.293-0.049-0.404-0.057v-0.422h3.896c0.357 0 0.692 0.037 1.005 0.11s0.597 0.191 0.85 0.354c0.246 0.159 0.442 0.366 0.589 0.621s0.22 0.564 0.22 0.925c0 0.325-0.050 0.613-0.149 0.862s-0.246 0.466-0.44 0.648c-0.178 0.171-0.393 0.318-0.642 0.443s-0.525 0.231-0.827 0.318c0.416 0.551 0.762 1.015 1.038 1.392s0.613 0.835 1.014 1.374c0.174 0.238 0.332 0.413 0.473 0.526s0.28 0.205 0.419 0.276c0.103 0.052 0.232 0.091 0.387 0.119s0.283 0.044 0.386 0.048v0.422zM5.322 25.509c0-0.511-0.147-0.915-0.44-1.214s-0.708-0.448-1.243-0.448h-1.011v3.616h0.779c0.547 0 1.003-0.175 1.368-0.525s0.547-0.826 0.547-1.428z"></path>
<path d="M12.465 31.798h-3.8v-0.422c0.107-0.008 0.262-0.020 0.464-0.036s0.345-0.040 0.428-0.071c0.131-0.051 0.226-0.122 0.285-0.211s0.089-0.213 0.089-0.372v-6.114c0-0.139-0.022-0.255-0.065-0.348s-0.147-0.171-0.309-0.235c-0.119-0.048-0.269-0.092-0.449-0.134s-0.328-0.066-0.443-0.074v-0.422h3.8v0.422c-0.123 0.004-0.27 0.019-0.44 0.045s-0.319 0.059-0.446 0.098c-0.151 0.048-0.252 0.125-0.303 0.232s-0.077 0.226-0.077 0.357v6.108c0 0.131 0.029 0.247 0.086 0.348s0.155 0.181 0.294 0.241c0.083 0.032 0.219 0.066 0.407 0.104s0.348 0.059 0.479 0.062v0.422z"></path>
<path d="M21.606 27.629c0 0.718-0.135 1.34-0.404 1.867s-0.621 0.959-1.053 1.296c-0.436 0.337-0.926 0.589-1.469 0.755s-1.104 0.25-1.683 0.25h-3.497v-0.422c0.115 0 0.265-0.011 0.449-0.033s0.306-0.047 0.366-0.074c0.119-0.051 0.205-0.128 0.259-0.229s0.080-0.223 0.080-0.366v-6.090c0-0.135-0.023-0.256-0.068-0.363s-0.136-0.192-0.271-0.256c-0.123-0.059-0.256-0.103-0.399-0.131s-0.266-0.046-0.369-0.054v-0.422h3.687c0.507 0 1.007 0.078 1.499 0.235s0.92 0.368 1.285 0.633c0.496 0.353 0.884 0.815 1.166 1.386s0.422 1.243 0.422 2.016zM20.149 27.626c0-0.566-0.075-1.079-0.226-1.536s-0.371-0.857-0.66-1.197c-0.274-0.325-0.61-0.58-1.008-0.767s-0.842-0.279-1.329-0.279c-0.163 0-0.346 0.003-0.55 0.009s-0.356 0.011-0.455 0.015v6.483c0 0.361 0.105 0.61 0.315 0.749s0.533 0.208 0.969 0.208c0.503 0 0.944-0.089 1.32-0.267s0.682-0.426 0.916-0.743c0.246-0.333 0.425-0.718 0.538-1.156s0.17-0.944 0.17-1.518z"></path>
<path d="M30.729 27.629c0 0.718-0.135 1.34-0.404 1.867s-0.621 0.959-1.053 1.296c-0.436 0.337-0.926 0.589-1.469 0.755s-1.104 0.25-1.683 0.25h-3.497v-0.422c0.115 0 0.265-0.011 0.449-0.033s0.306-0.047 0.366-0.074c0.119-0.051 0.205-0.128 0.259-0.229s0.080-0.223 0.080-0.366v-6.090c0-0.135-0.023-0.256-0.068-0.363s-0.136-0.192-0.271-0.256c-0.123-0.059-0.256-0.103-0.398-0.131s-0.266-0.046-0.369-0.054v-0.422h3.687c0.507 0 1.007 0.078 1.499 0.235s0.92 0.368 1.285 0.633c0.496 0.353 0.884 0.815 1.166 1.386s0.422 1.243 0.422 2.016zM29.272 27.626c0-0.566-0.075-1.079-0.226-1.536s-0.371-0.857-0.66-1.197c-0.274-0.325-0.61-0.58-1.008-0.767s-0.842-0.279-1.329-0.279c-0.163 0-0.346 0.003-0.55 0.009s-0.356 0.011-0.455 0.015v6.483c0 0.361 0.105 0.61 0.315 0.749s0.533 0.208 0.969 0.208c0.503 0 0.944-0.089 1.32-0.267s0.682-0.426 0.916-0.743c0.246-0.333 0.425-0.718 0.538-1.156s0.17-0.944 0.17-1.518z"></path>
<path d="M38.543 29.288l-0.178 2.51h-6.596v-0.422c0.095-0.008 0.233-0.022 0.413-0.042s0.306-0.046 0.378-0.077c0.119-0.051 0.205-0.127 0.259-0.226s0.080-0.226 0.080-0.381v-6.042c0-0.135-0.023-0.254-0.068-0.357s-0.136-0.186-0.271-0.25c-0.091-0.048-0.219-0.094-0.384-0.14s-0.3-0.072-0.407-0.080v-0.422h3.562v0.422c-0.111 0.004-0.255 0.024-0.431 0.059s-0.304 0.067-0.384 0.095c-0.135 0.048-0.227 0.129-0.277 0.244s-0.074 0.238-0.074 0.369v5.668c0 0.262 0.013 0.465 0.039 0.61s0.086 0.257 0.181 0.336c0.091 0.071 0.227 0.118 0.407 0.14s0.433 0.033 0.758 0.033c0.147 0 0.299-0.004 0.458-0.012s0.309-0.024 0.452-0.048c0.139-0.024 0.267-0.056 0.384-0.098s0.203-0.094 0.259-0.158c0.163-0.182 0.352-0.459 0.568-0.83s0.366-0.671 0.449-0.901h0.422z"></path>
<path d="M46.215 29.312l-0.161 2.486h-7.006v-0.422c0.119-0.008 0.277-0.025 0.476-0.051s0.327-0.053 0.387-0.080c0.127-0.059 0.215-0.137 0.265-0.232s0.074-0.216 0.074-0.363v-6.066c0-0.131-0.022-0.247-0.065-0.348s-0.135-0.183-0.274-0.247c-0.107-0.051-0.251-0.097-0.431-0.137s-0.324-0.063-0.431-0.071v-0.422h6.53v2.034h-0.446c-0.079-0.301-0.251-0.621-0.514-0.96s-0.514-0.524-0.752-0.556c-0.123-0.016-0.27-0.028-0.44-0.036s-0.365-0.012-0.583-0.012h-1.326v3.354h0.952c0.305 0 0.528-0.029 0.669-0.086s0.265-0.154 0.372-0.288c0.087-0.115 0.161-0.269 0.223-0.461s0.102-0.374 0.122-0.544h0.446v3.307h-0.446c-0.016-0.19-0.059-0.392-0.128-0.604s-0.142-0.366-0.217-0.461c-0.123-0.155-0.263-0.256-0.419-0.303s-0.364-0.071-0.621-0.071h-0.952v2.529c0 0.253 0.018 0.453 0.053 0.6s0.105 0.257 0.208 0.332c0.103 0.075 0.244 0.124 0.422 0.146s0.432 0.033 0.761 0.033h0.517c0.214 0 0.395-0.008 0.541-0.024 0.151-0.016 0.306-0.045 0.467-0.086s0.274-0.098 0.342-0.17c0.182-0.19 0.374-0.479 0.574-0.865s0.328-0.671 0.384-0.853h0.428z"></path>
<path d="M58.235 31.798h-2.273c-0.503-0.789-0.958-1.471-1.364-2.046s-0.847-1.168-1.322-1.778h-0.864v2.676c0 0.139 0.022 0.261 0.065 0.366s0.137 0.185 0.279 0.241c0.071 0.028 0.196 0.054 0.375 0.077s0.329 0.038 0.452 0.042v0.422h-3.568v-0.422c0.095-0.008 0.233-0.022 0.413-0.042s0.306-0.046 0.378-0.077c0.119-0.051 0.205-0.127 0.259-0.226s0.080-0.226 0.080-0.381v-6.102c0-0.139-0.020-0.262-0.059-0.369s-0.133-0.188-0.28-0.244c-0.099-0.036-0.228-0.068-0.387-0.098s-0.293-0.049-0.404-0.057v-0.422h3.895c0.357 0 0.692 0.037 1.005 0.11s0.597 0.191 0.85 0.354c0.246 0.159 0.442 0.366 0.589 0.621s0.22 0.564 0.22 0.925c0 0.325-0.050 0.613-0.149 0.862s-0.246 0.466-0.44 0.648c-0.178 0.171-0.392 0.318-0.642 0.443s-0.525 0.231-0.827 0.318c0.416 0.551 0.762 1.015 1.038 1.392s0.613 0.835 1.014 1.374c0.174 0.238 0.332 0.413 0.473 0.526s0.28 0.205 0.419 0.276c0.103 0.052 0.232 0.091 0.387 0.119s0.283 0.044 0.386 0.048v0.422zM55.106 25.509c0-0.511-0.147-0.915-0.44-1.214s-0.708-0.448-1.243-0.448h-1.011v3.616h0.779c0.547 0 1.003-0.175 1.368-0.525s0.547-0.826 0.547-1.428z"></path>
<path d="M67.096 23.781c-0.111 0.004-0.274 0.028-0.488 0.071s-0.389 0.109-0.523 0.196c-0.135 0.091-0.228 0.28-0.279 0.565s-0.077 0.634-0.077 1.047v3.669c0 0.468-0.097 0.874-0.291 1.219s-0.45 0.628-0.767 0.85c-0.313 0.214-0.643 0.368-0.99 0.461s-0.679 0.14-0.996 0.14c-0.508 0-0.96-0.066-1.356-0.199s-0.73-0.312-0.999-0.538c-0.266-0.226-0.466-0.485-0.601-0.776s-0.202-0.596-0.202-0.913v-4.99c0-0.139-0.023-0.255-0.068-0.348s-0.138-0.179-0.276-0.259c-0.099-0.055-0.226-0.1-0.381-0.134s-0.282-0.054-0.381-0.062v-0.422h3.515v0.422c-0.111 0.004-0.251 0.022-0.419 0.054s-0.292 0.061-0.372 0.089c-0.135 0.048-0.225 0.127-0.271 0.238s-0.068 0.232-0.068 0.363v4.659c0 0.226 0.025 0.463 0.074 0.71s0.148 0.478 0.294 0.692c0.155 0.218 0.365 0.396 0.63 0.535s0.63 0.208 1.094 0.208c0.436 0 0.802-0.069 1.097-0.208s0.528-0.321 0.699-0.547c0.162-0.214 0.277-0.438 0.345-0.672s0.101-0.469 0.101-0.707v-3.459c0-0.44-0.032-0.799-0.095-1.079s-0.157-0.463-0.279-0.55c-0.139-0.099-0.328-0.176-0.568-0.232s-0.423-0.087-0.55-0.095v-0.422h3.449v0.422z"></path>
<path d="M76.433 23.781c-0.111 0.004-0.282 0.036-0.512 0.095s-0.394 0.121-0.494 0.184c-0.143 0.099-0.239 0.29-0.288 0.571s-0.074 0.638-0.074 1.070v6.179h-0.517l-5.115-6.905v4.353c0 0.488 0.031 0.862 0.092 1.124s0.156 0.448 0.282 0.559c0.091 0.087 0.28 0.169 0.565 0.244s0.474 0.115 0.565 0.119v0.422h-3.461v-0.422c0.107-0.008 0.287-0.047 0.541-0.116s0.412-0.132 0.476-0.187c0.139-0.111 0.234-0.28 0.285-0.509s0.077-0.617 0.077-1.169v-4.157c0-0.182-0.032-0.365-0.095-0.547s-0.149-0.323-0.256-0.422c-0.143-0.131-0.336-0.243-0.58-0.336s-0.441-0.144-0.592-0.152v-0.422h2.411l4.743 6.434v-4.014c0-0.492-0.032-0.869-0.095-1.133s-0.155-0.439-0.274-0.526c-0.111-0.075-0.292-0.149-0.544-0.22s-0.443-0.111-0.574-0.119v-0.422h3.432v0.422z"></path>
<path d="M8.088 0l2.951 8.403 1.303-4.538v4.973l-3.46 11.608h-0.794l-5.811-17.24c-0.2-0.579-0.409-0.968-0.629-1.168-0.13-0.13-0.355-0.225-0.674-0.285-0.649-0.14-0.974-0.449-0.974-0.929 0-0.26 0.092-0.462 0.277-0.607s0.452-0.217 0.801-0.217h7.010zM2.277 6.89l1.588 4.523v4.508c0 0.459 0.017 0.789 0.052 0.989s0.112 0.419 0.232 0.659c0.21 0.439 0.499 0.769 0.869 0.989l0.554 0.359c0.379 0.23 0.569 0.484 0.569 0.764 0 0.509-0.374 0.764-1.123 0.764h-3.76c-0.749 0-1.123-0.25-1.123-0.749 0-0.16 0.032-0.282 0.097-0.367s0.192-0.182 0.382-0.292c1.108-0.599 1.663-1.637 1.663-3.115v-9.032zM13.6 0h7.055c0.749 0 1.123 0.26 1.123 0.779 0 0.41-0.2 0.679-0.599 0.809-0.329 0.11-0.522 0.177-0.577 0.202s-0.112 0.082-0.172 0.172c-0.12 0.16-0.18 0.414-0.18 0.764v14.993c0 0.35 0.060 0.604 0.18 0.764 0.060 0.090 0.117 0.147 0.172 0.172s0.247 0.092 0.577 0.202c0.399 0.13 0.599 0.399 0.599 0.809 0 0.519-0.374 0.779-1.123 0.779h-7.564c-0.44 0-0.771-0.067-0.996-0.202s-0.337-0.337-0.337-0.607c0-0.439 0.24-0.714 0.719-0.824 0.389-0.1 0.619-0.162 0.689-0.187s0.14-0.082 0.21-0.172c0.15-0.18 0.225-0.464 0.225-0.854v-17.599z"></path>
<path d="M29.207 3.804l0.764 3.1-2.651 9.676c-0.080 0.28-0.12 0.539-0.12 0.779 0 0.629 0.294 1.078 0.884 1.348l0.524 0.24c0.329 0.15 0.494 0.399 0.494 0.749 0 0.499-0.365 0.749-1.093 0.749h-3.804c-0.37 0-0.662-0.077-0.876-0.232s-0.322-0.367-0.322-0.637c0-0.289 0.22-0.529 0.659-0.719 0.409-0.18 0.711-0.342 0.906-0.487s0.382-0.342 0.562-0.592c0.279-0.409 0.509-0.953 0.689-1.633l3.385-12.342zM30.24 0h6.036l4.164 17.599c0.080 0.31 0.17 0.584 0.27 0.824 0.090 0.19 0.29 0.344 0.599 0.464 0.26 0.11 0.439 0.22 0.539 0.33s0.15 0.26 0.15 0.449c0 0.519-0.389 0.779-1.168 0.779h-7.474c-0.3 0-0.539-0.072-0.719-0.217s-0.27-0.337-0.27-0.577c0-0.2 0.040-0.349 0.12-0.449s0.26-0.225 0.539-0.374c0.2-0.1 0.339-0.21 0.419-0.33s0.12-0.27 0.12-0.449c0-0.17-0.015-0.319-0.045-0.449l-0.479-2.172h-4.179l0.404-1.782h3.355l-2.756-12.177 0.374-1.468z"></path>
<path d="M57.44 0v1.722l-8.283 18.722h-6.545v-1.483l8.313-18.962h6.515zM43.121 0h6.5l-0.749 1.708c-0.849 0.11-1.628 0.419-2.337 0.929-0.899 0.639-1.513 1.548-1.842 2.726-0.080 0.31-0.18 0.524-0.3 0.644s-0.29 0.18-0.509 0.18c-0.509 0-0.764-0.294-0.764-0.884v-5.302zM57.44 20.445h-7.010l0.674-1.498c1.228-0.29 2.117-0.624 2.666-1.004 0.469-0.33 0.849-0.709 1.138-1.138s0.594-1.073 0.914-1.932c0.12-0.319 0.237-0.537 0.352-0.652s0.272-0.172 0.472-0.172c0.26 0 0.457 0.090 0.592 0.27s0.202 0.44 0.202 0.779v5.347z"></path>
<path d="M67.461 0v20.445h-7.055c-0.359 0-0.637-0.067-0.831-0.202s-0.292-0.327-0.292-0.577c0-0.409 0.2-0.679 0.599-0.809 0.329-0.11 0.522-0.177 0.577-0.202s0.112-0.082 0.172-0.172c0.12-0.16 0.18-0.414 0.18-0.764v-14.993c0-0.349-0.060-0.604-0.18-0.764-0.060-0.090-0.117-0.147-0.172-0.172s-0.247-0.092-0.577-0.202c-0.4-0.13-0.599-0.399-0.599-0.809 0-0.25 0.097-0.442 0.292-0.577s0.472-0.202 0.831-0.202h7.055zM68.719 10.904v-1.737c0.579-0.279 1.008-0.584 1.288-0.914s0.484-0.769 0.614-1.318c0.080-0.379 0.185-0.641 0.314-0.786s0.315-0.217 0.554-0.217c0.319 0 0.539 0.125 0.659 0.374 0.070 0.13 0.105 0.425 0.105 0.884v5.707c0 0.469-0.052 0.794-0.157 0.974s-0.297 0.27-0.577 0.27c-0.23 0-0.409-0.070-0.539-0.21s-0.235-0.374-0.315-0.704c-0.17-0.689-0.412-1.218-0.726-1.588s-0.722-0.614-1.221-0.734zM68.794 0h6.036v5.302c0 0.31-0.060 0.534-0.18 0.674s-0.31 0.21-0.569 0.21c-0.22 0-0.38-0.045-0.479-0.135s-0.195-0.274-0.285-0.554c-0.38-1.158-0.936-2.042-1.67-2.651s-1.685-0.974-2.853-1.093v-1.752zM68.809 20.445v-1.618c0.649-0.1 1.186-0.24 1.61-0.419s0.851-0.454 1.281-0.824c0.429-0.369 0.771-0.751 1.026-1.146s0.497-0.916 0.727-1.565c0.11-0.319 0.225-0.537 0.344-0.652s0.285-0.172 0.494-0.172c0.279 0 0.474 0.082 0.584 0.247s0.165 0.452 0.165 0.861v5.287h-6.231z"></path>
</symbol>
<symbol id="icon-logo-max" viewBox="0 0 32 32">
<path d="M0.142 19.551c-0.266 0.208-0.146 0.528 0.244 0.643 0.279 0.084 0.35 0.133 0.466 0.35 0.049 0.093 0.665 1.871 1.37 3.955l1.281 3.786 0.164 0.018c0.124 0.013 0.173-0.009 0.195-0.080 0.018-0.053 0.359-1.206 0.763-2.558l0.732-2.46-0.027-2.057-0.266 0.935c-0.146 0.514-0.284 0.913-0.306 0.891s-0.31-0.825-0.647-1.787l-0.612-1.747h-1.605c-1.543-0.004-1.614 0-1.751 0.111zM5.888 23.377c-0.013 3.214-0.027 3.959-0.089 4.030-0.040 0.049-0.155 0.102-0.257 0.124-0.399 0.075-0.576 0.386-0.35 0.612 0.151 0.151 0.563 0.177 2.394 0.16 1.485-0.018 1.614-0.027 1.72-0.12 0.16-0.146 0.146-0.377-0.027-0.514-0.080-0.062-0.177-0.111-0.217-0.111s-0.124-0.049-0.182-0.106c-0.106-0.106-0.106-0.182-0.106-3.547 0-2.341 0.018-3.476 0.058-3.547 0.031-0.058 0.164-0.155 0.297-0.208 0.239-0.102 0.328-0.248 0.288-0.465-0.040-0.213-0.217-0.235-1.897-0.235h-1.609l-0.022 3.928zM13.074 19.48c-0.013 0.022-0.053 0.186-0.089 0.364-0.062 0.319-0.049 0.377 0.528 2.895l0.59 2.571-1.445 0.027-0.031 0.146c-0.027 0.111-0.053 0.226-0.080 0.337-0.027 0.102-0.049 0.208-0.049 0.231s0.399 0.040 0.887 0.040c0.798 0 0.891 0.009 0.918 0.093 0.071 0.235 0.195 0.904 0.195 1.068 0 0.155-0.035 0.204-0.231 0.337-0.279 0.186-0.332 0.417-0.146 0.585 0.111 0.102 0.208 0.106 1.937 0.106 1.951 0 2.030-0.009 2.097-0.275 0.040-0.164-0.040-0.27-0.306-0.403-0.111-0.058-0.226-0.168-0.262-0.253s-0.465-1.858-0.958-3.941c-0.492-2.084-0.909-3.83-0.922-3.884-0.027-0.089-0.137-0.093-1.321-0.093-0.705 0.004-1.299 0.027-1.312 0.049zM18.669 20.673c0 1.299 0.013 1.37 0.248 1.441 0.155 0.044 0.386-0.142 0.43-0.364 0.062-0.306 0.359-0.798 0.612-1.015 0.27-0.235 0.692-0.457 0.993-0.51 0.182-0.035 0.208-0.067 0.364-0.412l0.164-0.372h-2.806l-0.004 1.232zM21.972 19.587c-0.035 0.080-0.847 1.92-1.796 4.079-1.694 3.857-1.725 3.937-1.725 4.287v0.359l2.82-0.027 3.564-8.060v-0.789h-2.797l-0.067 0.151zM25.82 19.502c-0.284 0.137-0.2 0.532 0.133 0.638 0.115 0.035 0.235 0.102 0.275 0.151 0.084 0.106 0.098 6.938 0.018 7.093-0.027 0.053-0.133 0.129-0.231 0.168-0.262 0.102-0.368 0.213-0.368 0.386 0 0.106 0.044 0.182 0.146 0.248 0.133 0.089 0.306 0.098 1.773 0.098h1.627l0.027-8.849-1.636 0.004c-1.068 0.004-1.685 0.027-1.764 0.062zM29.761 19.813v0.377l0.284 0.058c0.842 0.173 1.295 0.607 1.711 1.64 0.089 0.217 0.293 0.297 0.466 0.182l0.137-0.089v-2.54h-2.598v0.372zM11.881 23.834c-0.408 1.494-0.807 2.855-0.882 3.024-0.16 0.364-0.297 0.501-0.709 0.718-0.235 0.124-0.31 0.195-0.324 0.297-0.040 0.35 0.231 0.434 1.37 0.426 0.975-0.004 1.108-0.031 1.21-0.217 0.071-0.129 0.071-0.155-0.013-0.284-0.053-0.080-0.204-0.195-0.337-0.257-0.31-0.146-0.403-0.279-0.403-0.594 0-0.155 0.226-1.086 0.585-2.39l0.585-2.137-0.155-0.638c-0.084-0.35-0.164-0.643-0.173-0.652-0.004-0.004-0.346 1.21-0.754 2.704zM30.661 22.154c-0.044 0.067-0.106 0.239-0.142 0.377-0.080 0.297-0.31 0.599-0.603 0.78-0.208 0.133-0.208 0.137-0.208 0.479v0.346l0.239 0.115c0.275 0.133 0.461 0.386 0.599 0.816 0.124 0.39 0.222 0.497 0.43 0.474 0.284-0.027 0.301-0.129 0.301-1.747 0-1.658-0.013-1.72-0.332-1.747-0.164-0.013-0.222 0.004-0.284 0.106zM0.975 24.561c0 2.367-0.013 2.469-0.399 2.846-0.129 0.124-0.297 0.27-0.377 0.324-0.177 0.12-0.191 0.306-0.031 0.448 0.102 0.093 0.208 0.102 1.184 0.102s1.082-0.009 1.184-0.102c0.173-0.155 0.142-0.328-0.084-0.505-0.78-0.599-0.776-0.585-0.776-2.106v-1.197l-0.324-0.909c-0.177-0.501-0.337-0.922-0.35-0.935-0.018-0.009-0.027 0.904-0.027 2.035zM24.366 25.554c-0.075 0.031-0.16 0.155-0.231 0.35-0.364 0.975-0.683 1.303-1.556 1.596-0.47 0.16-0.479 0.164-0.599 0.421-0.067 0.142-0.12 0.288-0.12 0.328 0 0.053 0.332 0.067 1.485 0.067h1.49v-1.29c0-0.949-0.018-1.312-0.067-1.374-0.093-0.115-0.257-0.155-0.403-0.098zM32 25.549c-0.075 0.031-0.173 0.191-0.284 0.47-0.332 0.82-0.856 1.299-1.631 1.498l-0.297 0.075v0.692l2.678 0.027v-1.29c0-0.949-0.018-1.312-0.066-1.374-0.093-0.111-0.257-0.151-0.399-0.098zM3.569 29.203c0 0.049 0.049 0.080 0.124 0.080 0.239 0 0.253 0.067 0.253 1.246s-0.013 1.246-0.253 1.246c-0.075 0-0.124 0.031-0.124 0.080 0 0.067 0.102 0.080 0.594 0.080s0.594-0.013 0.594-0.080c0-0.049-0.049-0.080-0.124-0.080-0.217 0-0.253-0.098-0.253-0.634 0-0.497 0-0.505 0.133-0.505 0.102 0 0.199 0.093 0.43 0.408 0.164 0.222 0.364 0.514 0.452 0.647l0.155 0.244h0.364c0.199 0 0.377-0.022 0.395-0.053s-0.066-0.093-0.191-0.142c-0.177-0.071-0.301-0.195-0.625-0.634l-0.403-0.545 0.244-0.124c0.417-0.213 0.545-0.709 0.27-1.037-0.191-0.226-0.417-0.275-1.281-0.275-0.634 0-0.754 0.013-0.754 0.080zM6.384 29.194c0 0.040 0.080 0.093 0.177 0.12l0.177 0.053 0.013 1.162c0.018 1.232 0.013 1.246-0.244 1.246-0.071 0-0.12 0.035-0.12 0.080 0 0.067 0.106 0.080 0.621 0.080s0.621-0.013 0.621-0.080c0-0.044-0.049-0.080-0.106-0.080s-0.155-0.049-0.217-0.106c-0.102-0.102-0.106-0.182-0.106-1.162 0-1.139 0.018-1.219 0.301-1.219 0.080 0 0.133-0.031 0.133-0.080 0-0.067-0.106-0.080-0.621-0.080-0.479-0.004-0.63 0.013-0.63 0.067zM8.007 29.198c0 0.040 0.071 0.089 0.164 0.106l0.164 0.031v2.381l-0.177 0.044c-0.332 0.084-0.151 0.146 0.488 0.164 1.055 0.027 1.592-0.191 1.875-0.758 0.16-0.315 0.186-0.763 0.071-1.144-0.098-0.328-0.497-0.709-0.856-0.816-0.386-0.115-1.729-0.12-1.729-0.009zM11.039 29.198c0 0.040 0.071 0.089 0.155 0.106 0.102 0.022 0.168 0.075 0.191 0.155 0.018 0.067 0.035 0.576 0.035 1.131 0 1.077-0.018 1.166-0.27 1.197-0.075 0.009-0.129 0.040-0.124 0.071 0.009 0.031 0.284 0.062 0.647 0.071 1.060 0.027 1.592-0.186 1.875-0.754 0.16-0.315 0.191-0.767 0.084-1.157-0.084-0.31-0.501-0.7-0.864-0.807-0.39-0.12-1.729-0.124-1.729-0.013zM14.067 29.203c0 0.044 0.049 0.080 0.106 0.080 0.253 0 0.275 0.098 0.275 1.246 0 1.144-0.022 1.246-0.275 1.246-0.058 0-0.106 0.035-0.106 0.084 0 0.071 0.146 0.080 1.095 0.067l1.095-0.013 0.018-0.421c0.009-0.239-0.004-0.421-0.035-0.421-0.027 0-0.129 0.133-0.222 0.301-0.102 0.177-0.226 0.319-0.306 0.35-0.191 0.075-0.692 0.067-0.767-0.013-0.044-0.044-0.066-0.395-0.066-1.215v-1.153l0.173-0.044c0.093-0.027 0.182-0.075 0.195-0.111 0.018-0.049-0.133-0.067-0.576-0.067-0.501 0.004-0.603 0.018-0.603 0.084zM16.461 29.189c0.013 0.035 0.098 0.084 0.195 0.111 0.111 0.031 0.182 0.089 0.2 0.164 0.018 0.067 0.022 0.594 0.013 1.175l-0.013 1.055-0.168 0.053c-0.39 0.124-0.195 0.164 0.94 0.177 0.891 0.013 1.157 0 1.175-0.053 0.013-0.040 0.031-0.222 0.044-0.408 0.027-0.399-0.062-0.452-0.222-0.137-0.173 0.337-0.293 0.412-0.709 0.439-0.572 0.031-0.599 0.004-0.599-0.643v-0.541h0.603l0.084 0.217c0.049 0.12 0.12 0.217 0.16 0.217 0.058 0 0.071-0.124 0.071-0.541 0-0.43-0.018-0.541-0.075-0.541-0.044 0-0.106 0.084-0.137 0.186-0.067 0.2-0.257 0.301-0.55 0.301h-0.155v-1.135h0.412c0.39 0 0.421 0.009 0.567 0.164 0.084 0.089 0.168 0.213 0.191 0.275 0.067 0.208 0.16 0.067 0.177-0.266l0.018-0.332h-1.126c-0.847-0.004-1.113 0.013-1.095 0.062zM20.127 29.203c0 0.049 0.049 0.080 0.129 0.080 0.239 0 0.253 0.080 0.239 1.277l-0.013 1.131-0.177 0.053c-0.098 0.027-0.177 0.084-0.177 0.12 0 0.053 0.146 0.071 0.594 0.071 0.492 0 0.594-0.013 0.594-0.080 0-0.044-0.049-0.080-0.102-0.080-0.257 0-0.275-0.035-0.275-0.603 0-0.532 0-0.536 0.133-0.536 0.102 0 0.2 0.093 0.426 0.408 0.164 0.222 0.364 0.514 0.452 0.652l0.155 0.244 0.377-0.013c0.403-0.018 0.47-0.084 0.173-0.182-0.129-0.044-0.284-0.2-0.594-0.616l-0.421-0.559 0.262-0.146c0.288-0.164 0.39-0.332 0.39-0.643 0-0.266-0.204-0.519-0.479-0.594-0.111-0.031-0.532-0.058-0.944-0.058-0.621-0.004-0.74 0.009-0.74 0.075zM22.903 29.189c0.013 0.035 0.071 0.075 0.124 0.089 0.226 0.044 0.239 0.093 0.239 1.060 0 0.856 0.009 0.949 0.12 1.166 0.377 0.736 1.707 0.603 1.928-0.191 0.031-0.12 0.058-0.585 0.058-1.033 0-0.891 0.031-0.993 0.301-0.993 0.080 0 0.133-0.031 0.133-0.080 0-0.067-0.098-0.080-0.567-0.080s-0.567 0.013-0.567 0.080c0 0.044 0.044 0.080 0.102 0.080s0.16 0.044 0.231 0.102c0.124 0.098 0.129 0.133 0.142 0.962 0.018 0.98-0.031 1.162-0.368 1.334-0.239 0.124-0.656 0.098-0.82-0.049-0.222-0.2-0.262-0.399-0.262-1.334s0.018-1.015 0.253-1.015c0.075 0 0.124-0.031 0.124-0.080 0-0.067-0.102-0.080-0.599-0.080-0.452-0.004-0.59 0.013-0.572 0.062zM25.864 29.172c0 0.027 0.093 0.093 0.204 0.151 0.319 0.155 0.346 0.248 0.328 1.295-0.018 1.002-0.035 1.068-0.315 1.131-0.089 0.018-0.16 0.071-0.16 0.115 0 0.067 0.102 0.075 0.581 0.062 0.594-0.018 0.709-0.071 0.377-0.182-0.262-0.089-0.315-0.315-0.297-1.264l0.013-0.789 0.838 1.122c0.545 0.732 0.869 1.122 0.935 1.122 0.089 0 0.098-0.084 0.098-1.219 0-1.144 0.004-1.224 0.106-1.326 0.058-0.058 0.155-0.106 0.217-0.106s0.106-0.035 0.106-0.080c0-0.067-0.098-0.080-0.572-0.080-0.417 0-0.567 0.018-0.55 0.062 0.013 0.035 0.102 0.089 0.2 0.124 0.098 0.031 0.2 0.102 0.226 0.151s0.044 0.461 0.035 0.913l-0.013 0.825-0.758-1.037-0.763-1.033h-0.421c-0.231-0.004-0.417 0.018-0.417 0.044zM5.090 29.442c0.129 0.129 0.16 0.204 0.16 0.412 0 0.217-0.027 0.279-0.186 0.439-0.155 0.155-0.222 0.186-0.434 0.186h-0.248v-1.193h0.275c0.235 0 0.301 0.022 0.434 0.155zM9.576 29.406c0.137 0.071 0.306 0.217 0.399 0.35 0.133 0.191 0.164 0.293 0.182 0.647 0.031 0.51-0.049 0.82-0.262 1.064-0.2 0.226-0.567 0.341-0.856 0.27l-0.2-0.049-0.027-2.412h0.262c0.164 0.009 0.355 0.053 0.501 0.129zM12.542 29.371c0.466 0.195 0.661 0.541 0.661 1.188 0 0.501-0.106 0.794-0.368 1.015-0.195 0.164-0.572 0.239-0.802 0.164l-0.151-0.049-0.027-2.403h0.248c0.124 0 0.328 0.035 0.439 0.084zM21.653 29.451c0.151 0.151 0.164 0.191 0.137 0.439-0.035 0.372-0.204 0.541-0.576 0.576l-0.275 0.027v-1.206h0.275c0.235 0 0.301 0.022 0.439 0.164z"></path>
<path d="M15.53 0.022c-2.993 0.208-5.719 1.951-7.209 4.606-1.716 3.063-1.49 6.885 0.585 9.736 0.43 0.59 1.064 1.264 1.618 1.707 0.882 0.709 2.004 1.308 3.041 1.623 1.561 0.47 3.245 0.519 4.792 0.137 1.348-0.332 2.554-0.931 3.582-1.778 0.417-0.341 0.913-0.816 0.971-0.927 0.098-0.186 0.049-0.372-0.12-0.474s-0.368-0.058-0.501 0.115c-0.089 0.111-0.625 0.607-0.887 0.816-0.567 0.452-1.388 0.931-2.084 1.206-2.075 0.829-4.416 0.785-6.468-0.12-0.55-0.244-0.536-0.137-0.12-0.864 0.466-0.811 0.47-0.873 0.035-1.139-0.638-0.395-1.383-1.068-1.809-1.64-0.754-1.015-1.197-2.159-1.303-3.361l-0.022-0.257 0.94-0.009c0.922-0.009 0.949-0.013 1.033-0.075 0.186-0.142 0.186-0.421 0-0.559-0.084-0.066-0.111-0.066-1.029-0.075l-0.935-0.009 0.018-0.293c0.022-0.337 0.098-0.763 0.217-1.201 0.080-0.297 0.080-0.306 0.031-0.417-0.089-0.186-0.306-0.253-0.497-0.155-0.111 0.058-0.142 0.111-0.226 0.434-0.155 0.567-0.213 0.935-0.253 1.574-0.089 1.485 0.301 3.037 1.091 4.291 0.497 0.794 1.281 1.618 2.008 2.115 0.12 0.080 0.217 0.16 0.217 0.168 0 0.031-0.483 0.873-0.505 0.873-0.009 0-0.142-0.089-0.293-0.195-1.095-0.763-1.964-1.756-2.594-2.948-0.452-0.864-0.714-1.654-0.869-2.611-0.089-0.567-0.098-1.911-0.013-2.465 0.124-0.82 0.364-1.627 0.678-2.292l0.177-0.377 0.598 0.346c0.705 0.408 0.749 0.426 0.896 0.364 0.115-0.049 0.142-0.084 0.488-0.63 0.275-0.434 0.417-0.607 0.767-0.909 0.16-0.142 0.284-0.27 0.301-0.328 0.049-0.137 0.009-0.279-0.111-0.381-0.142-0.124-0.288-0.124-0.466 0.004-0.275 0.2-0.767 0.732-0.993 1.068-0.12 0.182-0.231 0.337-0.248 0.341-0.027 0.009-0.794-0.421-0.851-0.479-0.013-0.013 0.062-0.151 0.177-0.315 0.767-1.099 1.756-1.968 2.948-2.598 0.864-0.452 1.654-0.714 2.611-0.869 0.567-0.089 1.911-0.098 2.465-0.013 0.82 0.124 1.627 0.364 2.292 0.678l0.377 0.177-0.452 0.78c-0.474 0.82-0.501 0.887-0.408 1.068 0.053 0.102 0.186 0.182 0.306 0.182 0.182 0 0.248-0.080 0.714-0.887 0.248-0.426 0.457-0.776 0.461-0.776s0.146 0.089 0.301 0.2c0.798 0.554 1.498 1.259 2.053 2.048 0.115 0.164 0.191 0.306 0.177 0.319s-0.213 0.133-0.443 0.266l-0.417 0.239-0.164-0.231c-0.328-0.461-0.9-1.060-1.091-1.144-0.142-0.062-0.284-0.031-0.377 0.084-0.186 0.222-0.151 0.319 0.284 0.763 0.386 0.399 0.647 0.731 0.882 1.126 0.315 0.532 0.519 0.997 0.665 1.516 0.106 0.386 0.191 0.483 0.408 0.483 0.12-0.009 0.164-0.018 0.262-0.102 0.075-0.080 0.089-0.12 0.071-0.284-0.022-0.231-0.204-0.785-0.403-1.228-0.089-0.2-0.151-0.372-0.137-0.386s0.213-0.133 0.439-0.266l0.417-0.239 0.16 0.337c0.403 0.856 0.638 1.711 0.745 2.731 0.044 0.443 0.018 1.835-0.044 2.252-0.111 0.732-0.279 1.277-0.607 1.946l-0.222 0.452-0.43-0.244c-0.239-0.133-0.443-0.253-0.452-0.266-0.013-0.013 0.049-0.177 0.133-0.368 0.301-0.674 0.448-1.157 0.585-1.928 0.089-0.501 0.102-1.104 0.022-1.237-0.098-0.164-0.115-0.168-0.949-0.177l-0.771-0.009-0.035-0.288c-0.018-0.16-0.058-0.332-0.080-0.386-0.089-0.191-0.35-0.257-0.51-0.133-0.133 0.102-0.173 0.239-0.137 0.443 0.142 0.816 0.004 1.884-0.346 2.673l-0.075 0.173-0.173-0.098c-0.523-0.297-0.807-0.474-0.798-0.497 0.004-0.013 0.053-0.164 0.111-0.328 0.12-0.355 0.222-0.785 0.2-1.091-0.018-0.235-0.022-0.204-0.102-0.332v0c-0.067-0.071-0.16-0.115-0.257-0.115l-0.78-0.009c-1.020-0.009-1.095 0-1.197 0.155-0.027 0.044-0.062 0.177-0.075 0.297-0.049 0.417-0.226 0.736-0.536 0.958-0.443 0.319-1.077 0.319-1.525 0-0.709-0.51-0.709-1.6 0-2.11 0.257-0.186 0.492-0.248 0.904-0.235l0.2 0.004c0.089 0.004 0.177-0.031 0.239-0.093v0c0.080-0.102 0.098-0.12 0.098-0.248 0-0.173-0.080-0.279-0.253-0.337-0.16-0.053-0.705-0.044-0.935 0.018-0.665 0.173-1.268 0.767-1.432 1.41l-0.040 0.16-1.037 0.018 0.018-0.129c0.146-0.94 0.776-1.8 1.645-2.239 0.732-0.368 1.667-0.412 2.474-0.106 0.239 0.089 0.63 0.324 0.86 0.514 0.222 0.186 0.488 0.523 0.692 0.873 0.151 0.262 0.208 0.324 0.332 0.359 0.208 0.058 0.434-0.111 0.434-0.324 0-0.279-0.554-1.077-1.011-1.459-0.124-0.102-0.222-0.204-0.217-0.222 0.022-0.080 0.492-0.887 0.519-0.887 0.049 0 0.408 0.288 0.647 0.523 0.257 0.248 0.497 0.563 0.745 0.966 0.208 0.341 0.244 0.381 0.364 0.43 0.204 0.089 0.465-0.089 0.465-0.315 0-0.062-0.027-0.164-0.062-0.231-0.124-0.239-0.567-0.878-0.763-1.099-0.572-0.661-1.494-1.259-2.385-1.552-0.386-0.129-0.43-0.129-0.563-0.040-0.186 0.124-0.226 0.301-0.111 0.479 0.058 0.084 0.115 0.12 0.31 0.186 0.31 0.106 0.621 0.226 0.674 0.262 0.035 0.022-0.009 0.115-0.208 0.47-0.137 0.244-0.266 0.448-0.288 0.457s-0.102-0.013-0.182-0.049c-0.607-0.262-1.552-0.319-2.265-0.146-0.794 0.191-1.552 0.683-2.048 1.312l-0.12 0.155-0.448-0.257c-0.248-0.142-0.457-0.262-0.461-0.266-0.018-0.018 0.129-0.217 0.359-0.488 0.523-0.616 1.326-1.139 2.163-1.41 0.386-0.124 0.47-0.2 0.47-0.412 0-0.155-0.084-0.27-0.239-0.324-0.115-0.040-0.137-0.040-0.466 0.067-0.186 0.062-0.434 0.155-0.55 0.208-0.173 0.080-0.213 0.089-0.235 0.053-0.102-0.16-0.514-0.878-0.505-0.887 0.004-0.004 0.133-0.062 0.284-0.133 0.652-0.293 1.405-0.488 2.066-0.536l0.27-0.022v0.745c0 0.829 0.009 0.878 0.199 0.966 0.129 0.062 0.217 0.058 0.332-0.013 0.168-0.102 0.173-0.133 0.186-0.949l0.009-0.749 0.231 0.022c0.355 0.031 0.776 0.106 1.060 0.191 0.501 0.151 0.47 0.146 0.585 0.089 0.195-0.093 0.257-0.301 0.16-0.497-0.089-0.173-0.665-0.355-1.494-0.466-0.395-0.053-0.567-0.062-1.091-0.049-0.696 0.018-1.073 0.067-1.645 0.217-0.541 0.142-0.918 0.279-1.423 0.528-0.732 0.359-0.736 0.381-0.191 1.308 0.204 0.346 0.364 0.63 0.359 0.634-0.74 0.545-1.099 0.904-1.538 1.556-0.408 0.572-0.767 1.383-0.727 1.574 0.027 0.146 0.168 0.257 0.275 0.275 0.186 0.035 0.381-0.089 0.426-0.275 0.035-0.146 0.262-0.607 0.293-0.598 0.018 0.004 0.231 0.124 0.474 0.262l0.443 0.253-0.040 0.080c-0.204 0.408-0.372 1.383-0.279 1.609 0.084 0.208 0.124 0.217 0.98 0.231l0.767 0.013 0.040 0.16c0.080 0.306 0.275 0.634 0.536 0.891 0.195 0.195 0.293 0.262 0.514 0.368 0.151 0.071 0.328 0.142 0.395 0.155l0.12 0.027 0.009 0.519c0.009 0.439 0 0.519-0.035 0.519-0.084 0-0.457-0.089-0.634-0.151-0.572-0.2-1.144-0.656-1.516-1.21-0.275-0.408-0.324-0.408-1.144 0.075-0.355 0.208-0.647 0.377-0.656 0.377s-0.080-0.164-0.155-0.364c-0.155-0.399-0.226-0.483-0.421-0.483-0.155 0-0.27 0.071-0.332 0.204v0c-0.035 0.075-0.040 0.155-0.013 0.235l0.062 0.182c0.279 0.825 0.891 1.711 1.6 2.323 0.488 0.421 1.246 0.891 1.627 1.011 0.195 0.062 0.226 0.066 0.328 0.027 0.129-0.049 0.248-0.208 0.248-0.328 0-0.089-0.106-0.266-0.182-0.306-0.027-0.013-0.133-0.058-0.239-0.098-0.417-0.164-1.117-0.638-1.525-1.037-0.222-0.217-0.621-0.692-0.621-0.736 0-0.018 0.785-0.488 0.878-0.523 0.035-0.013 0.102 0.049 0.239 0.208 0.483 0.576 1.179 1.015 1.92 1.206 0.842 0.217 1.609 0.155 2.474-0.2 0.732-0.301 0.94-0.519 0.767-0.802-0.058-0.098-0.2-0.191-0.288-0.191-0.027 0-0.226 0.089-0.448 0.195-0.417 0.204-0.771 0.328-1.037 0.364l-0.16 0.022 0.018-1.046 0.12-0.027c0.067-0.013 0.248-0.084 0.399-0.16 0.536-0.262 0.909-0.736 1.082-1.392 0.009-0.027 0.137-0.040 0.51-0.040 0.461 0 0.501 0.004 0.488 0.053-0.009 0.031-0.035 0.16-0.067 0.288-0.049 0.235-0.16 0.536-0.284 0.758-0.098 0.182-0.089 0.332 0.031 0.448 0.053 0.053 0.377 0.257 0.723 0.457l0.625 0.359-0.049 0.084c-0.027 0.049-0.164 0.217-0.301 0.377-0.217 0.257-0.248 0.306-0.248 0.408 0 0.16 0.067 0.275 0.2 0.337 0.168 0.080 0.275 0.044 0.47-0.155 0.794-0.825 1.343-2.035 1.459-3.214l0.022-0.204h1.077l-0.018 0.173c-0.031 0.337-0.195 1.082-0.324 1.476-0.377 1.126-1.064 2.172-1.915 2.922-0.377 0.328-0.749 0.603-0.78 0.567-0.013-0.013-0.182-0.306-0.377-0.643-0.359-0.625-0.474-0.78-0.599-0.789-0.284-0.013-0.439 0.137-0.408 0.39 0.009 0.071 0.16 0.364 0.399 0.771 0.213 0.364 0.372 0.669 0.359 0.683s-0.177 0.093-0.359 0.173c-0.656 0.297-1.396 0.488-2.163 0.563l-0.204 0.018v-0.102c0-0.16 0.080-0.989 0.093-1.002 0.009-0.004 0.168-0.031 0.359-0.062 0.426-0.062 0.754-0.142 0.856-0.208 0.182-0.12 0.168-0.452-0.022-0.567-0.124-0.075-0.173-0.071-0.594 0.018-0.191 0.040-0.514 0.084-0.718 0.102-0.346 0.027-0.372 0.031-0.457 0.111-0.049 0.044-0.093 0.111-0.102 0.146s-0.044 0.395-0.080 0.802c-0.035 0.408-0.066 0.745-0.075 0.749-0.031 0.031-0.749-0.137-1.135-0.266-0.244-0.080-0.483-0.151-0.532-0.151-0.115 0-0.244 0.102-0.297 0.235s-0.013 0.275 0.111 0.381c0.111 0.093 0.909 0.355 1.343 0.443 1.193 0.235 2.868-0.035 4.123-0.665 1.166-0.585 2.243-1.512 2.922-2.514l0.111-0.164 0.541 0.301c0.718 0.403 0.825 0.452 0.944 0.426 0.16-0.031 0.253-0.16 0.55-0.758 0.55-1.095 0.745-1.791 0.838-2.975 0.222-2.851-0.692-5.422-2.62-7.351-1.889-1.849-4.402-2.78-7.102-2.594z"></path>
</symbol>
<symbol id="icon-logo-mid" viewBox="0 0 87 32">
<path d="M34.72 5.731c-0.282 0.345-0.11 0.713 0.455 0.98 0.29 0.141 0.588 0.337 0.651 0.439s1.043 2.932 2.172 6.287c1.725 5.135 2.101 6.107 2.344 6.146 0.259 0.039 0.408-0.368 1.474-3.935l1.184-3.982-0.016-3.308-0.361 1.239c-0.196 0.682-0.392 1.333-0.439 1.45s-0.431-0.792-0.862-2.030c-0.431-1.239-0.886-2.532-1.019-2.869l-0.227-0.619h-2.587c-2.085-0.008-2.626 0.031-2.767 0.204zM43.869 11.845v6.326l-0.541 0.227c-0.784 0.321-0.925 0.588-0.533 0.98 0.196 0.196 0.69 0.227 3.206 0.227 1.772 0 3.089-0.063 3.261-0.149 0.463-0.243 0.345-0.706-0.227-0.949l-0.51-0.212v-11.414l0.51-0.243c0.572-0.274 0.682-0.729 0.227-0.972-0.165-0.086-1.348-0.149-2.83-0.149h-2.548l-0.016 6.326zM55.212 6.036c-0.118 0.439 0 1.152 0.792 4.609 0.517 2.25 0.933 4.139 0.933 4.202s-0.517 0.118-1.145 0.118c-1.066 0-1.152 0.024-1.231 0.329-0.219 0.807-0.196 0.823 1.317 0.87l1.411 0.039 0.392 1.881-0.439 0.376c-0.243 0.204-0.439 0.47-0.439 0.588 0 0.51 0.298 0.564 3.285 0.564 2.477 0 2.971-0.039 3.167-0.227 0.314-0.314 0.298-0.368-0.282-0.862l-0.51-0.439-1.482-6.279-1.482-6.287h-4.147l-0.141 0.517zM64.235 7.588l0.039 2.070 0.4 0.047c0.361 0.039 0.431-0.039 0.768-0.8 0.549-1.231 1.246-1.85 2.407-2.132 0.267-0.063 0.439-0.259 0.604-0.674l0.227-0.588h-4.484l0.039 2.077zM69.378 5.989c-0.11 0.259-1.388 3.167-2.838 6.467-1.975 4.5-2.634 6.138-2.634 6.569v0.58h4.461l2.853-6.452c2.195-4.954 2.853-6.585 2.853-7.048v-0.596h-4.5l-0.196 0.478zM75.539 5.731c-0.267 0.321-0.125 0.682 0.361 0.949l0.439 0.243v11.281l-0.439 0.243c-0.486 0.267-0.619 0.635-0.361 0.949 0.141 0.172 0.69 0.212 2.846 0.212h2.673v-14.087h-2.673c-2.156 0-2.705 0.039-2.846 0.212zM81.928 6.177c0 0.58 0.039 0.651 0.329 0.659 0.98 0.008 2.195 1.035 2.65 2.234 0.204 0.541 0.321 0.666 0.604 0.666 0.51 0 0.627-0.486 0.627-2.477v-1.74h-4.21v0.659zM53.386 12.676c-0.635 2.336-1.293 4.508-1.45 4.829-0.188 0.376-0.51 0.698-0.909 0.917-0.674 0.368-0.807 0.784-0.337 1.035 0.157 0.086 1.003 0.149 1.881 0.149 1.254 0 1.646-0.047 1.827-0.227 0.337-0.337 0.29-0.439-0.392-0.894-0.51-0.337-0.627-0.51-0.658-0.933-0.024-0.306 0.329-1.866 0.886-3.88l0.933-3.363-0.227-0.941c-0.125-0.517-0.259-0.941-0.306-0.941-0.055 0-0.611 1.913-1.246 4.249zM83.418 9.768c-0.078 0.102-0.227 0.431-0.321 0.729-0.102 0.329-0.408 0.729-0.745 1.003-0.792 0.635-0.792 1.199 0 1.834 0.361 0.29 0.643 0.682 0.768 1.066 0.227 0.674 0.525 0.949 0.894 0.807 0.212-0.078 0.235-0.415 0.235-2.681 0-2.579-0.063-2.94-0.517-2.94-0.094 0-0.235 0.078-0.314 0.18zM36.022 13.852c0 3.826-0.031 3.982-0.941 4.672-1.011 0.768-0.557 1.082 1.599 1.082 1.521 0 2.109-0.133 2.109-0.478 0-0.094-0.345-0.478-0.76-0.847l-0.76-0.674-0.078-2.305c-0.078-2.148-0.118-2.391-0.557-3.536-0.259-0.674-0.502-1.262-0.533-1.293-0.047-0.031-0.078 1.489-0.078 3.379zM72.788 16.157c-0.227 0.502-0.596 1.098-0.831 1.325-0.447 0.447-1.411 0.949-1.834 0.956-0.227 0-0.831 0.768-0.831 1.058 0 0.063 1.082 0.11 2.399 0.11h2.391v-1.952c0-1.074-0.039-2.054-0.086-2.179s-0.251-0.227-0.439-0.227c-0.298 0.008-0.431 0.157-0.768 0.909zM84.986 16.039c-0.415 1.035-1.482 2.046-2.391 2.297-0.635 0.172-0.659 0.196-0.659 0.729v0.549h4.359l-0.016-1.78c-0.016-2.171-0.094-2.493-0.588-2.548-0.345-0.047-0.423 0.039-0.706 0.753zM34.72 21.77c0 0.071 0.165 0.172 0.361 0.22l0.361 0.094v4.798l-0.361 0.165c-0.627 0.29-0.4 0.408 0.776 0.408 1.278 0 1.544-0.11 0.902-0.384-0.431-0.18-0.439-0.204-0.439-1.207 0-0.98 0.016-1.027 0.345-1.027 0.274 0 0.533 0.274 1.246 1.309l0.894 1.309h0.784c0.862 0 1.027-0.18 0.368-0.408-0.267-0.094-0.753-0.58-1.309-1.309l-0.886-1.168 0.541-0.267c1.043-0.51 1.192-1.819 0.282-2.375-0.392-0.235-0.737-0.282-2.172-0.282-0.925 0-1.693 0.055-1.693 0.125zM40.529 21.754c0 0.063 0.196 0.188 0.439 0.274l0.439 0.165v2.226c0 1.223-0.047 2.297-0.11 2.391-0.055 0.086-0.251 0.212-0.431 0.267-0.69 0.212-0.274 0.376 0.98 0.376 1.341 0 1.646-0.141 0.87-0.415l-0.439-0.157 0.078-4.876 0.4-0.047c0.219-0.024 0.4-0.11 0.4-0.18 0-0.078-0.588-0.133-1.309-0.133s-1.317 0.047-1.317 0.11zM43.869 21.77c0 0.071 0.165 0.172 0.361 0.22l0.361 0.094v4.806l-0.47 0.204c-0.713 0.306-0.235 0.408 1.529 0.345 2.626-0.102 3.669-0.941 3.669-2.955 0-1.293-0.376-1.936-1.442-2.469-0.635-0.321-0.902-0.361-2.36-0.361-0.909-0.008-1.646 0.047-1.646 0.118zM50.117 21.77c0 0.071 0.165 0.172 0.361 0.22l0.361 0.094v4.9l-0.361 0.094c-0.196 0.047-0.361 0.165-0.361 0.251 0 0.11 0.517 0.141 1.631 0.102 1.921-0.071 2.744-0.361 3.387-1.207 0.314-0.415 0.423-0.737 0.47-1.403 0.11-1.529-0.525-2.571-1.85-3.010-0.572-0.196-3.637-0.227-3.637-0.039zM56.357 21.77c0 0.071 0.165 0.172 0.361 0.22l0.361 0.094v4.9l-0.361 0.094c-0.196 0.047-0.361 0.157-0.361 0.235 0 0.094 0.823 0.133 2.289 0.11l2.289-0.039 0.047-0.839c0.024-0.463-0.008-0.839-0.071-0.839s-0.29 0.282-0.502 0.635c-0.321 0.533-0.47 0.651-0.972 0.729-0.321 0.055-0.76 0.031-0.964-0.047l-0.376-0.141 0.039-2.438c0.039-2.399 0.047-2.438 0.368-2.485 0.18-0.024 0.329-0.11 0.329-0.18s-0.557-0.133-1.239-0.133-1.239 0.055-1.239 0.125zM61.444 21.77c0 0.071 0.165 0.172 0.361 0.22l0.361 0.094v4.9l-0.361 0.094c-0.196 0.047-0.361 0.157-0.361 0.235 0 0.086 0.925 0.141 2.399 0.141 2.391 0 2.399 0 2.399-0.329 0-0.18 0.039-0.572 0.094-0.87 0.125-0.753-0.219-0.729-0.588 0.039-0.314 0.659-0.557 0.76-1.693 0.69l-0.792-0.047-0.078-2.399h0.494c0.525 0 0.972 0.361 0.972 0.776 0 0.133 0.102 0.243 0.219 0.243 0.172 0 0.219-0.227 0.219-1.16 0-1.105-0.172-1.513-0.392-0.909-0.18 0.502-0.525 0.76-1.011 0.76h-0.502v-2.32h0.807c0.658 0 0.87 0.063 1.16 0.353 0.196 0.196 0.353 0.423 0.353 0.51s0.102 0.149 0.219 0.149c0.165 0 0.219-0.172 0.219-0.651v-0.651h-2.25c-1.239 0.008-2.25 0.063-2.25 0.133zM69.001 21.77c0 0.071 0.165 0.172 0.361 0.22l0.361 0.094v4.798l-0.361 0.165c-0.643 0.29-0.392 0.408 0.87 0.408 1.293 0 1.529-0.118 0.8-0.392-0.431-0.165-0.439-0.18-0.439-1.192 0-0.988 0.016-1.027 0.345-1.027 0.267 0 0.549 0.29 1.262 1.309l0.925 1.309h0.768c0.847 0 1.003-0.18 0.345-0.408-0.274-0.094-0.713-0.541-1.239-1.239-0.447-0.604-0.807-1.121-0.807-1.16s0.227-0.204 0.51-0.368c0.949-0.557 1.043-1.819 0.172-2.352-0.392-0.235-0.737-0.282-2.171-0.282-0.933-0.008-1.701 0.047-1.701 0.118zM74.708 21.738c0.055 0.055 0.243 0.165 0.423 0.259 0.314 0.157 0.329 0.259 0.4 2.391 0.071 2.211 0.078 2.226 0.478 2.571 1.058 0.909 2.963 0.713 3.52-0.368 0.157-0.306 0.219-0.894 0.219-2.14 0-1.858 0.157-2.407 0.69-2.485 0.18-0.024 0.321-0.11 0.321-0.18s-0.557-0.133-1.239-0.133c-0.729 0-1.239 0.063-1.239 0.149 0 0.078 0.125 0.149 0.282 0.149 0.635 0 0.737 0.337 0.737 2.391 0 1.623-0.039 1.983-0.251 2.25-0.557 0.682-2.093 0.604-2.469-0.133-0.133-0.251-0.172-0.972-0.149-2.399 0.039-1.983 0.047-2.038 0.361-2.077 0.18-0.024 0.329-0.11 0.329-0.18s-0.564-0.133-1.262-0.133c-0.682-0.024-1.207 0.016-1.152 0.071zM80.909 21.785c0 0.078 0.102 0.149 0.219 0.149s0.345 0.133 0.51 0.29c0.259 0.259 0.29 0.486 0.29 2.258 0 1.082-0.063 2.093-0.141 2.234s-0.306 0.306-0.517 0.361c-0.706 0.18-0.196 0.376 0.964 0.376 0.87 0 1.152-0.047 1.105-0.18-0.031-0.102-0.188-0.204-0.337-0.227-0.549-0.094-0.643-0.439-0.643-2.407v-1.889l1.74 2.352c0.956 1.293 1.842 2.352 1.96 2.352 0.188 0 0.219-0.368 0.219-2.587 0-2.673 0.055-2.932 0.611-2.932 0.141 0 0.259-0.063 0.259-0.149s-0.486-0.149-1.16-0.149c-1.223 0-1.45 0.118-0.737 0.384 0.533 0.196 0.619 0.619 0.564 2.516l-0.047 1.38-3.183-4.28h-0.839c-0.463 0.008-0.839 0.071-0.839 0.149zM37.864 22.311c0.314 0.314 0.361 0.463 0.29 0.909-0.11 0.69-0.674 1.192-1.341 1.192h-0.502v-2.469h0.588c0.439-0.008 0.682 0.086 0.964 0.368zM47.208 22.264c0.76 0.517 1.027 0.988 1.121 1.976 0.157 1.693-0.596 2.783-1.928 2.783-0.321 0-0.666-0.078-0.76-0.172-0.118-0.118-0.172-0.894-0.172-2.54v-2.367h0.635c0.415-0.008 0.792 0.102 1.105 0.321zM53.456 22.201c1.372 0.721 1.599 3.528 0.361 4.508-0.541 0.423-1.732 0.447-1.952 0.031-0.086-0.157-0.149-1.262-0.149-2.54v-2.258h0.619c0.337-0.008 0.847 0.11 1.121 0.259zM72.129 22.287c0.768 0.768 0.125 2.117-1.011 2.117h-0.517v-2.469h0.588c0.423 0 0.674 0.094 0.941 0.353z"></path>
<path d="M14.769 0.055c-5.292 0.368-10.113 3.449-12.747 8.145-3.034 5.417-2.634 12.174 1.035 17.215 0.76 1.043 1.881 2.234 2.861 3.018 1.56 1.254 3.543 2.313 5.378 2.869 2.759 0.831 5.738 0.917 8.474 0.243 2.383-0.588 4.515-1.646 6.334-3.144 0.737-0.604 1.615-1.442 1.717-1.638 0.172-0.329 0.086-0.659-0.212-0.839s-0.651-0.102-0.886 0.204c-0.157 0.196-1.105 1.074-1.568 1.442-1.003 0.8-2.454 1.646-3.684 2.132-3.669 1.466-7.808 1.388-11.438-0.212-0.972-0.431-0.949-0.243-0.212-1.529 0.823-1.435 0.831-1.544 0.063-2.015-1.129-0.698-2.446-1.889-3.198-2.901-1.333-1.795-2.117-3.818-2.305-5.942l-0.039-0.455 1.662-0.016c1.631-0.016 1.678-0.024 1.827-0.133 0.329-0.251 0.329-0.745 0-0.988-0.149-0.118-0.196-0.118-1.819-0.133l-1.654-0.016 0.031-0.517c0.039-0.596 0.172-1.348 0.384-2.124 0.141-0.525 0.141-0.541 0.055-0.737-0.157-0.329-0.541-0.447-0.878-0.274-0.196 0.102-0.251 0.196-0.4 0.768-0.274 1.003-0.376 1.654-0.447 2.783-0.157 2.626 0.533 5.37 1.928 7.588 0.878 1.403 2.266 2.861 3.551 3.739 0.212 0.141 0.384 0.282 0.384 0.298 0 0.055-0.854 1.544-0.894 1.544-0.016 0-0.251-0.157-0.517-0.345-1.936-1.348-3.473-3.104-4.586-5.213-0.8-1.529-1.262-2.924-1.536-4.617-0.157-1.003-0.172-3.379-0.024-4.359 0.22-1.45 0.643-2.877 1.199-4.053l0.314-0.666 1.058 0.611c1.246 0.721 1.325 0.753 1.584 0.643 0.204-0.086 0.251-0.149 0.862-1.113 0.486-0.768 0.737-1.074 1.356-1.607 0.282-0.251 0.502-0.478 0.533-0.58 0.086-0.243 0.016-0.494-0.196-0.674-0.251-0.22-0.51-0.22-0.823 0.008-0.486 0.353-1.356 1.293-1.756 1.889-0.212 0.321-0.408 0.596-0.439 0.604-0.047 0.016-1.403-0.745-1.505-0.847-0.024-0.024 0.11-0.267 0.314-0.557 1.356-1.944 3.104-3.481 5.213-4.594 1.529-0.8 2.924-1.262 4.617-1.536 1.003-0.157 3.379-0.172 4.359-0.024 1.45 0.22 2.877 0.643 4.053 1.199l0.666 0.314-0.8 1.38c-0.839 1.45-0.886 1.568-0.721 1.889 0.094 0.18 0.329 0.321 0.541 0.321 0.321 0 0.439-0.141 1.262-1.568 0.439-0.753 0.807-1.372 0.815-1.372s0.259 0.157 0.533 0.353c1.411 0.98 2.65 2.226 3.63 3.622 0.204 0.29 0.337 0.541 0.314 0.564s-0.376 0.235-0.784 0.47l-0.737 0.423-0.29-0.408c-0.58-0.815-1.591-1.874-1.928-2.023-0.251-0.11-0.502-0.055-0.666 0.149-0.329 0.392-0.267 0.564 0.502 1.348 0.682 0.706 1.145 1.293 1.56 1.991 0.557 0.941 0.917 1.764 1.176 2.681 0.188 0.682 0.337 0.854 0.721 0.854 0.212-0.016 0.29-0.031 0.463-0.18 0.133-0.141 0.157-0.212 0.125-0.502-0.039-0.408-0.361-1.388-0.713-2.171-0.157-0.353-0.267-0.659-0.243-0.682s0.376-0.235 0.776-0.47l0.737-0.423 0.282 0.596c0.713 1.513 1.129 3.026 1.317 4.829 0.078 0.784 0.031 3.245-0.078 3.982-0.196 1.293-0.494 2.258-1.074 3.441l-0.392 0.8-0.76-0.431c-0.423-0.235-0.784-0.447-0.8-0.47-0.024-0.024 0.086-0.314 0.235-0.651 0.533-1.192 0.792-2.046 1.035-3.41 0.157-0.886 0.18-1.952 0.039-2.187-0.172-0.29-0.204-0.298-1.678-0.314l-1.364-0.016-0.063-0.51c-0.031-0.282-0.102-0.588-0.141-0.682-0.157-0.337-0.619-0.455-0.902-0.235-0.235 0.18-0.306 0.423-0.243 0.784 0.251 1.442 0.008 3.332-0.611 4.727l-0.133 0.306-0.306-0.172c-0.925-0.525-1.427-0.839-1.411-0.878 0.008-0.024 0.094-0.29 0.196-0.58 0.212-0.627 0.392-1.388 0.353-1.928-0.031-0.415-0.039-0.361-0.18-0.588v0c-0.118-0.125-0.282-0.204-0.455-0.204l-1.38-0.016c-1.803-0.016-1.936 0-2.117 0.274-0.047 0.078-0.11 0.314-0.133 0.525-0.086 0.737-0.4 1.301-0.949 1.693-0.784 0.564-1.905 0.564-2.697 0-1.254-0.902-1.254-2.83 0-3.732 0.455-0.329 0.87-0.439 1.599-0.415l0.353 0.008c0.157 0.008 0.314-0.055 0.423-0.165v0c0.141-0.18 0.172-0.212 0.172-0.439 0-0.306-0.141-0.494-0.447-0.596-0.282-0.094-1.246-0.078-1.654 0.031-1.176 0.306-2.242 1.356-2.532 2.493l-0.071 0.282-1.834 0.031 0.031-0.227c0.259-1.662 1.372-3.183 2.908-3.959 1.293-0.651 2.948-0.729 4.374-0.188 0.423 0.157 1.113 0.572 1.521 0.909 0.392 0.329 0.862 0.925 1.223 1.544 0.267 0.463 0.368 0.572 0.588 0.635 0.368 0.102 0.768-0.196 0.768-0.572 0-0.494-0.98-1.905-1.787-2.579-0.22-0.18-0.392-0.361-0.384-0.392 0.039-0.141 0.87-1.568 0.917-1.568 0.086 0 0.721 0.51 1.145 0.925 0.455 0.439 0.878 0.996 1.317 1.709 0.368 0.604 0.431 0.674 0.643 0.76 0.361 0.157 0.823-0.157 0.823-0.557 0-0.11-0.047-0.29-0.11-0.408-0.22-0.423-1.003-1.552-1.348-1.944-1.011-1.168-2.642-2.226-4.218-2.744-0.682-0.227-0.76-0.227-0.996-0.071-0.329 0.22-0.4 0.533-0.196 0.847 0.102 0.149 0.204 0.212 0.549 0.329 0.549 0.188 1.098 0.4 1.192 0.463 0.063 0.039-0.016 0.204-0.368 0.831-0.243 0.431-0.47 0.792-0.51 0.807s-0.18-0.024-0.321-0.086c-1.074-0.463-2.744-0.564-4.006-0.259-1.403 0.337-2.744 1.207-3.622 2.32l-0.212 0.274-0.792-0.455c-0.439-0.251-0.807-0.463-0.815-0.47-0.031-0.031 0.227-0.384 0.635-0.862 0.925-1.090 2.344-2.015 3.826-2.493 0.682-0.22 0.831-0.353 0.831-0.729 0-0.274-0.149-0.478-0.423-0.572-0.204-0.071-0.243-0.071-0.823 0.118-0.329 0.11-0.768 0.274-0.972 0.368-0.306 0.141-0.376 0.157-0.415 0.094-0.18-0.282-0.909-1.552-0.894-1.568 0.008-0.008 0.235-0.11 0.502-0.235 1.152-0.517 2.485-0.862 3.653-0.949l0.478-0.039v1.317c0 1.466 0.016 1.552 0.353 1.709 0.227 0.11 0.384 0.102 0.588-0.024 0.298-0.18 0.306-0.235 0.329-1.678l0.016-1.325 0.408 0.039c0.627 0.055 1.372 0.188 1.874 0.337 0.886 0.267 0.831 0.259 1.035 0.157 0.345-0.165 0.455-0.533 0.282-0.878-0.157-0.306-1.176-0.627-2.642-0.823-0.698-0.094-1.003-0.11-1.928-0.086-1.231 0.031-1.897 0.118-2.908 0.384-0.956 0.251-1.623 0.494-2.516 0.933-1.293 0.635-1.301 0.674-0.337 2.313 0.361 0.611 0.643 1.113 0.635 1.121-1.309 0.964-1.944 1.599-2.72 2.752-0.721 1.011-1.356 2.446-1.286 2.783 0.047 0.259 0.298 0.455 0.486 0.486 0.329 0.063 0.674-0.157 0.753-0.486 0.063-0.259 0.463-1.074 0.517-1.058 0.031 0.008 0.408 0.22 0.839 0.463l0.784 0.447-0.071 0.141c-0.361 0.721-0.659 2.446-0.494 2.846 0.149 0.368 0.22 0.384 1.732 0.408l1.356 0.024 0.071 0.282c0.141 0.541 0.486 1.121 0.949 1.576 0.345 0.345 0.517 0.463 0.909 0.651 0.267 0.125 0.58 0.251 0.698 0.274l0.212 0.047 0.016 0.917c0.016 0.776 0 0.917-0.063 0.917-0.149 0-0.807-0.157-1.121-0.267-1.011-0.353-2.023-1.16-2.681-2.14-0.486-0.721-0.572-0.721-2.023 0.133-0.627 0.368-1.145 0.666-1.16 0.666s-0.141-0.29-0.274-0.643c-0.274-0.706-0.4-0.854-0.745-0.854-0.274 0-0.478 0.125-0.588 0.361v0c-0.063 0.133-0.071 0.274-0.024 0.415l0.11 0.321c0.494 1.458 1.576 3.026 2.83 4.108 0.862 0.745 2.203 1.576 2.877 1.787 0.345 0.11 0.4 0.118 0.58 0.047 0.227-0.086 0.439-0.368 0.439-0.58 0-0.157-0.188-0.47-0.321-0.541-0.047-0.024-0.235-0.102-0.423-0.172-0.737-0.29-1.976-1.129-2.697-1.834-0.392-0.384-1.098-1.223-1.098-1.301 0-0.031 1.388-0.862 1.552-0.925 0.063-0.024 0.18 0.086 0.423 0.368 0.854 1.019 2.085 1.795 3.394 2.132 1.489 0.384 2.846 0.274 4.374-0.353 1.293-0.533 1.662-0.917 1.356-1.419-0.102-0.172-0.353-0.337-0.51-0.337-0.047 0-0.4 0.157-0.792 0.345-0.737 0.361-1.364 0.58-1.834 0.643l-0.282 0.039 0.031-1.85 0.212-0.047c0.118-0.024 0.439-0.149 0.706-0.282 0.949-0.463 1.607-1.301 1.913-2.462 0.016-0.047 0.243-0.071 0.902-0.071 0.815 0 0.886 0.008 0.862 0.094-0.016 0.055-0.063 0.282-0.118 0.51-0.086 0.415-0.282 0.949-0.502 1.341-0.172 0.321-0.157 0.588 0.055 0.792 0.094 0.094 0.666 0.455 1.278 0.807l1.105 0.635-0.086 0.149c-0.047 0.086-0.29 0.384-0.533 0.666-0.384 0.455-0.439 0.541-0.439 0.721 0 0.282 0.118 0.486 0.353 0.596 0.298 0.141 0.486 0.078 0.831-0.274 1.403-1.458 2.375-3.598 2.579-5.684l0.039-0.361h1.905l-0.031 0.306c-0.055 0.596-0.345 1.913-0.572 2.61-0.666 1.991-1.881 3.841-3.387 5.166-0.666 0.58-1.325 1.066-1.38 1.003-0.024-0.024-0.321-0.541-0.666-1.137-0.635-1.105-0.839-1.38-1.058-1.395-0.502-0.024-0.776 0.243-0.721 0.69 0.016 0.125 0.282 0.643 0.706 1.364 0.376 0.643 0.659 1.184 0.635 1.207s-0.314 0.165-0.635 0.306c-1.16 0.525-2.469 0.862-3.826 0.996l-0.361 0.031v-0.18c0-0.282 0.141-1.748 0.165-1.772 0.016-0.008 0.298-0.055 0.635-0.11 0.753-0.11 1.333-0.251 1.513-0.368 0.321-0.212 0.298-0.8-0.039-1.003-0.22-0.133-0.306-0.125-1.050 0.031-0.337 0.071-0.909 0.149-1.27 0.18-0.611 0.047-0.659 0.055-0.807 0.196-0.086 0.078-0.165 0.196-0.18 0.259s-0.078 0.698-0.141 1.419-0.118 1.317-0.133 1.325c-0.055 0.055-1.325-0.243-2.007-0.47-0.431-0.141-0.854-0.267-0.941-0.267-0.204 0-0.431 0.18-0.525 0.415s-0.024 0.486 0.196 0.674c0.196 0.165 1.607 0.627 2.375 0.784 2.109 0.415 5.072-0.063 7.291-1.176 2.062-1.035 3.967-2.673 5.166-4.445l0.196-0.29 0.956 0.533c1.27 0.713 1.458 0.8 1.67 0.753 0.282-0.055 0.447-0.282 0.972-1.341 0.972-1.936 1.317-3.167 1.482-5.26 0.392-5.041-1.223-9.587-4.633-12.998-3.34-3.269-7.784-4.915-12.559-4.586z"></path>
</symbol>
<symbol id="icon-logo-min" viewBox="0 0 32 32">
<path d="M14.764 0.039c-5.295 0.369-10.12 3.452-12.756 8.151-3.036 5.421-2.636 12.183 1.036 17.228 0.761 1.043 1.883 2.236 2.863 3.020 1.561 1.255 3.546 2.314 5.382 2.871 2.761 0.832 5.743 0.918 8.48 0.243 2.385-0.588 4.519-1.647 6.339-3.146 0.737-0.604 1.616-1.444 1.718-1.64 0.173-0.329 0.086-0.659-0.212-0.839s-0.651-0.102-0.887 0.204c-0.157 0.196-1.106 1.075-1.569 1.444-1.004 0.8-2.456 1.647-3.687 2.134-3.672 1.467-7.814 1.389-11.446-0.212-0.973-0.431-0.949-0.243-0.212-1.53 0.824-1.436 0.832-1.545 0.063-2.016-1.13-0.698-2.448-1.891-3.201-2.903-1.334-1.797-2.118-3.821-2.306-5.947l-0.039-0.455 1.663-0.016c1.632-0.016 1.679-0.024 1.828-0.133 0.329-0.251 0.329-0.745 0-0.988-0.149-0.118-0.196-0.118-1.82-0.133l-1.655-0.016 0.031-0.518c0.039-0.596 0.173-1.349 0.384-2.126 0.141-0.526 0.141-0.541 0.055-0.737-0.157-0.329-0.541-0.447-0.879-0.275-0.196 0.102-0.251 0.196-0.4 0.769-0.275 1.004-0.377 1.655-0.447 2.785-0.157 2.628 0.533 5.374 1.93 7.594 0.879 1.404 2.267 2.863 3.554 3.742 0.212 0.141 0.384 0.282 0.384 0.298 0 0.055-0.855 1.545-0.894 1.545-0.016 0-0.251-0.157-0.518-0.345-1.938-1.349-3.475-3.107-4.589-5.217-0.8-1.53-1.263-2.926-1.538-4.621-0.157-1.004-0.173-3.381-0.024-4.362 0.22-1.451 0.643-2.879 1.2-4.056l0.314-0.667 1.059 0.612c1.247 0.722 1.326 0.753 1.585 0.643 0.204-0.086 0.251-0.149 0.863-1.114 0.486-0.769 0.737-1.075 1.357-1.608 0.282-0.251 0.502-0.479 0.533-0.581 0.086-0.243 0.016-0.494-0.196-0.675-0.251-0.22-0.51-0.22-0.824 0.008-0.486 0.353-1.357 1.294-1.757 1.891-0.212 0.322-0.408 0.596-0.439 0.604-0.047 0.016-1.404-0.745-1.506-0.847-0.024-0.024 0.11-0.267 0.314-0.557 1.357-1.946 3.107-3.483 5.217-4.597 1.53-0.8 2.926-1.263 4.621-1.538 1.004-0.157 3.381-0.173 4.362-0.024 1.451 0.22 2.879 0.643 4.056 1.2l0.667 0.314-0.8 1.381c-0.839 1.451-0.887 1.569-0.722 1.891 0.094 0.18 0.329 0.322 0.541 0.322 0.322 0 0.439-0.141 1.263-1.569 0.439-0.753 0.808-1.373 0.816-1.373s0.259 0.157 0.533 0.353c1.412 0.981 2.652 2.228 3.632 3.624 0.204 0.29 0.337 0.541 0.314 0.565s-0.377 0.235-0.785 0.471l-0.737 0.424-0.29-0.408c-0.581-0.816-1.593-1.875-1.93-2.024-0.251-0.11-0.502-0.055-0.667 0.149-0.329 0.392-0.267 0.565 0.502 1.349 0.683 0.706 1.145 1.294 1.561 1.993 0.557 0.941 0.918 1.765 1.177 2.683 0.188 0.683 0.337 0.855 0.722 0.855 0.212-0.016 0.29-0.031 0.463-0.18 0.133-0.141 0.157-0.212 0.126-0.502-0.039-0.408-0.361-1.389-0.714-2.173-0.157-0.353-0.267-0.659-0.243-0.683s0.377-0.235 0.777-0.471l0.737-0.424 0.282 0.596c0.714 1.514 1.13 3.028 1.318 4.833 0.078 0.784 0.031 3.248-0.078 3.985-0.196 1.294-0.494 2.259-1.075 3.444l-0.392 0.8-0.761-0.431c-0.424-0.235-0.785-0.447-0.8-0.471-0.024-0.024 0.086-0.314 0.235-0.651 0.533-1.192 0.792-2.048 1.036-3.413 0.157-0.887 0.18-1.953 0.039-2.189-0.173-0.29-0.204-0.298-1.679-0.314l-1.365-0.016-0.063-0.51c-0.031-0.282-0.102-0.588-0.141-0.683-0.157-0.337-0.62-0.455-0.902-0.235-0.235 0.18-0.306 0.424-0.243 0.784 0.251 1.443 0.008 3.334-0.612 4.731l-0.133 0.306-0.306-0.173c-0.926-0.526-1.428-0.839-1.412-0.879 0.008-0.024 0.094-0.29 0.196-0.581 0.212-0.628 0.392-1.389 0.353-1.93-0.031-0.416-0.039-0.361-0.18-0.588v0c-0.118-0.126-0.282-0.204-0.455-0.204l-1.381-0.016c-1.804-0.016-1.938 0-2.118 0.275-0.047 0.078-0.11 0.314-0.133 0.526-0.086 0.737-0.4 1.302-0.949 1.695-0.785 0.565-1.906 0.565-2.699 0-1.255-0.902-1.255-2.832 0-3.734 0.455-0.329 0.871-0.439 1.6-0.416l0.353 0.008c0.157 0.008 0.314-0.055 0.424-0.165v0c0.141-0.18 0.173-0.212 0.173-0.439 0-0.306-0.141-0.494-0.447-0.596-0.282-0.094-1.247-0.078-1.655 0.031-1.177 0.306-2.244 1.357-2.534 2.495l-0.071 0.282-1.836 0.031 0.031-0.227c0.259-1.663 1.373-3.185 2.911-3.962 1.294-0.651 2.95-0.73 4.378-0.188 0.424 0.157 1.114 0.573 1.522 0.91 0.392 0.329 0.863 0.926 1.224 1.545 0.267 0.463 0.369 0.573 0.588 0.635 0.369 0.102 0.769-0.196 0.769-0.573 0-0.494-0.981-1.906-1.789-2.581-0.22-0.18-0.392-0.361-0.384-0.392 0.039-0.141 0.871-1.569 0.918-1.569 0.086 0 0.722 0.51 1.145 0.926 0.455 0.439 0.879 0.996 1.318 1.71 0.369 0.604 0.431 0.675 0.643 0.761 0.361 0.157 0.824-0.157 0.824-0.557 0-0.11-0.047-0.29-0.11-0.408-0.22-0.424-1.004-1.553-1.349-1.946-1.012-1.169-2.644-2.228-4.221-2.746-0.683-0.228-0.761-0.228-0.996-0.071-0.329 0.22-0.4 0.533-0.196 0.847 0.102 0.149 0.204 0.212 0.549 0.33 0.549 0.188 1.098 0.4 1.192 0.463 0.063 0.039-0.016 0.204-0.369 0.832-0.243 0.431-0.471 0.792-0.51 0.808s-0.18-0.024-0.322-0.086c-1.075-0.463-2.746-0.565-4.009-0.259-1.404 0.337-2.746 1.208-3.624 2.322l-0.212 0.275-0.792-0.455c-0.439-0.251-0.808-0.463-0.816-0.471-0.031-0.031 0.227-0.384 0.635-0.863 0.926-1.090 2.346-2.016 3.828-2.495 0.683-0.22 0.832-0.353 0.832-0.73 0-0.275-0.149-0.479-0.424-0.573-0.204-0.071-0.243-0.071-0.824 0.118-0.329 0.11-0.769 0.275-0.973 0.369-0.306 0.141-0.377 0.157-0.416 0.094-0.18-0.282-0.91-1.553-0.894-1.569 0.008-0.008 0.235-0.11 0.502-0.235 1.153-0.518 2.487-0.863 3.656-0.949l0.479-0.039v1.318c0 1.467 0.016 1.553 0.353 1.71 0.227 0.11 0.384 0.102 0.588-0.024 0.298-0.18 0.306-0.235 0.329-1.679l0.016-1.326 0.408 0.039c0.628 0.055 1.373 0.188 1.875 0.337 0.887 0.267 0.832 0.259 1.036 0.157 0.345-0.165 0.455-0.533 0.282-0.879-0.157-0.306-1.177-0.628-2.644-0.824-0.698-0.094-1.004-0.11-1.93-0.086-1.232 0.031-1.899 0.118-2.911 0.384-0.957 0.251-1.624 0.494-2.518 0.934-1.294 0.635-1.302 0.675-0.337 2.314 0.361 0.612 0.643 1.114 0.635 1.122-1.31 0.965-1.946 1.6-2.722 2.754-0.722 1.012-1.357 2.448-1.287 2.785 0.047 0.259 0.298 0.455 0.486 0.486 0.33 0.063 0.675-0.157 0.753-0.486 0.063-0.259 0.463-1.075 0.518-1.059 0.031 0.008 0.408 0.22 0.839 0.463l0.784 0.447-0.071 0.141c-0.361 0.722-0.659 2.448-0.494 2.848 0.149 0.369 0.22 0.384 1.734 0.408l1.357 0.024 0.071 0.282c0.141 0.541 0.486 1.122 0.949 1.577 0.345 0.345 0.518 0.463 0.91 0.651 0.267 0.126 0.581 0.251 0.698 0.275l0.212 0.047 0.016 0.918c0.016 0.777 0 0.918-0.063 0.918-0.149 0-0.808-0.157-1.122-0.267-1.012-0.353-2.024-1.161-2.683-2.142-0.486-0.722-0.573-0.722-2.024 0.133-0.628 0.369-1.145 0.667-1.161 0.667s-0.141-0.29-0.275-0.643c-0.275-0.706-0.4-0.855-0.745-0.855-0.275 0-0.479 0.126-0.588 0.361v0c-0.063 0.133-0.071 0.275-0.024 0.416l0.11 0.322c0.494 1.459 1.577 3.028 2.832 4.111 0.863 0.745 2.204 1.577 2.879 1.789 0.345 0.11 0.4 0.118 0.581 0.047 0.227-0.086 0.439-0.369 0.439-0.581 0-0.157-0.188-0.471-0.322-0.541-0.047-0.024-0.235-0.102-0.424-0.173-0.737-0.29-1.977-1.13-2.699-1.836-0.392-0.384-1.098-1.224-1.098-1.302 0-0.031 1.389-0.863 1.553-0.926 0.063-0.024 0.18 0.086 0.424 0.369 0.855 1.020 2.087 1.797 3.397 2.134 1.491 0.384 2.848 0.275 4.378-0.353 1.294-0.533 1.663-0.918 1.357-1.42-0.102-0.173-0.353-0.337-0.51-0.337-0.047 0-0.4 0.157-0.792 0.345-0.737 0.361-1.365 0.581-1.836 0.643l-0.282 0.039 0.031-1.851 0.212-0.047c0.118-0.024 0.439-0.149 0.706-0.282 0.949-0.463 1.608-1.302 1.914-2.463 0.016-0.047 0.243-0.071 0.902-0.071 0.816 0 0.887 0.008 0.863 0.094-0.016 0.055-0.063 0.282-0.118 0.51-0.086 0.416-0.282 0.949-0.502 1.341-0.173 0.322-0.157 0.588 0.055 0.792 0.094 0.094 0.667 0.455 1.279 0.808l1.106 0.635-0.086 0.149c-0.047 0.086-0.29 0.384-0.533 0.667-0.384 0.455-0.439 0.541-0.439 0.722 0 0.282 0.118 0.486 0.353 0.596 0.298 0.141 0.486 0.078 0.832-0.275 1.404-1.459 2.377-3.601 2.581-5.688l0.039-0.361h1.906l-0.031 0.306c-0.055 0.596-0.345 1.914-0.573 2.612-0.667 1.993-1.883 3.844-3.389 5.17-0.667 0.581-1.326 1.067-1.381 1.004-0.024-0.024-0.322-0.541-0.667-1.138-0.635-1.106-0.839-1.381-1.059-1.396-0.502-0.024-0.777 0.243-0.722 0.69 0.016 0.126 0.282 0.643 0.706 1.365 0.377 0.643 0.659 1.185 0.635 1.208s-0.314 0.165-0.635 0.306c-1.161 0.526-2.471 0.863-3.828 0.996l-0.361 0.031v-0.18c0-0.282 0.141-1.749 0.165-1.773 0.016-0.008 0.298-0.055 0.635-0.11 0.753-0.11 1.334-0.251 1.514-0.369 0.322-0.212 0.298-0.8-0.039-1.004-0.22-0.133-0.306-0.126-1.051 0.031-0.337 0.071-0.91 0.149-1.271 0.18-0.612 0.047-0.659 0.055-0.808 0.196-0.086 0.078-0.165 0.196-0.18 0.259s-0.078 0.698-0.141 1.42c-0.063 0.722-0.118 1.318-0.133 1.326-0.055 0.055-1.326-0.243-2.008-0.471-0.431-0.141-0.855-0.267-0.941-0.267-0.204 0-0.431 0.18-0.526 0.416s-0.024 0.486 0.196 0.675c0.196 0.165 1.608 0.628 2.377 0.785 2.11 0.416 5.076-0.063 7.296-1.177 2.063-1.036 3.97-2.675 5.17-4.448l0.196-0.29 0.957 0.533c1.271 0.714 1.459 0.8 1.671 0.753 0.282-0.055 0.447-0.282 0.973-1.341 0.973-1.938 1.318-3.169 1.483-5.264 0.392-5.044-1.224-9.595-4.636-13.007-3.342-3.271-7.79-4.919-12.568-4.589z"></path>
</symbol>
<symbol id="icon-flaticon" viewBox="0 0 34 32">
<path d="M12.659 0l4.618 13.152 2.040-7.103v7.783l-5.415 18.169h-1.243l-9.096-26.983c-0.313-0.906-0.641-1.516-0.985-1.829-0.203-0.203-0.555-0.352-1.055-0.445-1.016-0.219-1.524-0.703-1.524-1.454 0-0.406 0.144-0.723 0.434-0.949s0.707-0.34 1.254-0.34h10.971zM3.563 10.784l2.485 7.080v7.056c0 0.719 0.027 1.235 0.082 1.547s0.176 0.656 0.363 1.032c0.328 0.688 0.781 1.204 1.36 1.547l0.867 0.563c0.594 0.36 0.891 0.758 0.891 1.196 0 0.797-0.586 1.196-1.758 1.196h-5.884c-1.172 0-1.758-0.39-1.758-1.172 0-0.25 0.051-0.441 0.152-0.574s0.301-0.285 0.598-0.457c1.735-0.938 2.602-2.563 2.602-4.876v-14.136zM21.286 0h11.042c1.172 0 1.758 0.407 1.758 1.219 0 0.641-0.313 1.063-0.938 1.266-0.516 0.172-0.817 0.278-0.903 0.316s-0.176 0.129-0.27 0.27c-0.188 0.25-0.281 0.649-0.281 1.196v23.467c0 0.547 0.094 0.946 0.281 1.196 0.094 0.141 0.184 0.231 0.27 0.27s0.387 0.145 0.903 0.316c0.625 0.203 0.938 0.625 0.938 1.266 0 0.813-0.586 1.219-1.758 1.219h-11.839c-0.688 0-1.207-0.106-1.559-0.316s-0.527-0.527-0.527-0.95c0-0.688 0.375-1.117 1.125-1.289 0.609-0.156 0.969-0.254 1.078-0.293s0.219-0.129 0.328-0.27c0.234-0.281 0.352-0.727 0.352-1.336v-27.546z"></path>
</symbol>
<symbol id="icon-arrow" viewBox="0 0 50 32">
<path stroke-linejoin="round" stroke-linecap="round" stroke-miterlimit="4" stroke-width="3.4286" d="M45.714 4.571l-20.571 22.857-20.571-22.857"></path>
</symbol>
<symbol id="icon-download" viewBox="0 0 32 32">
<path d="M26 2h-20l-6 6v21c0 0.552 0.448 1 1 1h30c0.552 0 1-0.448 1-1v-21l-6-6zM16 26l-10-8h6v-6h8v6h6l-10 8zM4.828 6l2-2h18.343l2 2h-22.343z"></path>
</symbol>
</defs>
</svg>
